<svg width="49" height="48" viewBox="0 0 49 48" fill="none" xmlns="http://www.w3.org/2000/svg">
<rect x="0.5" width="48" height="48" rx="10" fill="#F7941D"/>
<path d="M18.5944 23.2288C18.5322 22.8282 18.5 22.4179 18.5 22C18.5 17.5817 22.1052 14 26.5526 14C30.9999 14 34.6052 17.5817 34.6052 22C34.6052 22.9981 34.4213 23.9535 34.0852 24.8345C34.0154 25.0175 33.9804 25.109 33.9646 25.1804C33.9489 25.2512 33.9428 25.301 33.9411 25.3735C33.9394 25.4466 33.9493 25.5272 33.9692 25.6883L34.3717 28.9585C34.4153 29.3125 34.4371 29.4895 34.3782 29.6182C34.3266 29.731 34.235 29.8205 34.1211 29.8695C33.9911 29.9254 33.8146 29.8995 33.4617 29.8478L30.2765 29.3809C30.1101 29.3565 30.027 29.3443 29.9512 29.3448C29.8763 29.3452 29.8245 29.3507 29.7511 29.3661C29.677 29.3817 29.5823 29.4172 29.393 29.4881C28.5097 29.819 27.5524 30 26.5526 30C26.1344 30 25.7237 29.9683 25.3227 29.9073M20.1316 34C23.0965 34 25.5 31.5376 25.5 28.5C25.5 25.4624 23.0965 23 20.1316 23C17.1667 23 14.7632 25.4624 14.7632 28.5C14.7632 29.1106 14.8603 29.6979 15.0395 30.2467C15.1153 30.4787 15.1532 30.5947 15.1657 30.6739C15.1786 30.7567 15.1809 30.8031 15.1761 30.8867C15.1714 30.9668 15.1514 31.0573 15.1113 31.2383L14.5 34L17.4948 33.591C17.6583 33.5687 17.74 33.5575 17.8114 33.558C17.8865 33.5585 17.9264 33.5626 18.0001 33.5773C18.0701 33.5912 18.1742 33.6279 18.3823 33.7014C18.9306 33.8949 19.5191 34 20.1316 34Z" stroke="#323232" stroke-width="2" stroke-linecap="round" stroke-linejoin="round"/>
</svg>
