<svg width="49" height="49" viewBox="0 0 49 49" fill="none" xmlns="http://www.w3.org/2000/svg">
<rect x="0.0859375" y="0.0856934" width="48.1714" height="48.1714" rx="10.0357" fill="#F7941D"/>
<path d="M21.159 26.1786C21.159 26.1786 22.4762 27.6839 24.6715 27.6839C26.8668 27.6839 28.184 26.1786 28.184 26.1786M27.4313 21.1607H27.4413M21.9116 21.1607H21.9217M24.6715 32.2C29.3827 32.2 33.2018 28.3808 33.2018 23.6696C33.2018 18.9585 29.3827 15.1393 24.6715 15.1393C19.9603 15.1393 16.1411 18.9585 16.1411 23.6696C16.1411 24.623 16.2975 25.5399 16.5861 26.396C16.6946 26.7181 16.7489 26.8792 16.7587 27.0029C16.7684 27.1251 16.7611 27.2108 16.7309 27.3296C16.7002 27.4499 16.6327 27.575 16.4975 27.8252L14.856 30.8636C14.6218 31.297 14.5048 31.5137 14.531 31.6809C14.5538 31.8266 14.6395 31.9549 14.7654 32.0316C14.9099 32.1198 15.1549 32.0945 15.6449 32.0438L20.7842 31.5126C20.9398 31.4965 21.0176 31.4884 21.0886 31.4911C21.1583 31.4938 21.2076 31.5004 21.2756 31.516C21.3448 31.532 21.4318 31.5655 21.6057 31.6325C22.5572 31.9991 23.5908 32.2 24.6715 32.2ZM27.9331 21.1607C27.9331 21.4378 27.7084 21.6625 27.4313 21.6625C27.1542 21.6625 26.9295 21.4378 26.9295 21.1607C26.9295 20.8836 27.1542 20.6589 27.4313 20.6589C27.7084 20.6589 27.9331 20.8836 27.9331 21.1607ZM22.4134 21.1607C22.4134 21.4378 22.1888 21.6625 21.9116 21.6625C21.6345 21.6625 21.4099 21.4378 21.4099 21.1607C21.4099 20.8836 21.6345 20.6589 21.9116 20.6589C22.1888 20.6589 22.4134 20.8836 22.4134 21.1607Z" stroke="#323232" stroke-width="2.00714" stroke-linecap="round" stroke-linejoin="round"/>
</svg>
