<svg width="41" height="40" viewBox="0 0 41 40" fill="none" xmlns="http://www.w3.org/2000/svg">
<path d="M36.1982 16.9136C34.7848 9.58831 28.3487 4.15828 20.8953 4.00377C17.1115 3.92651 13.7068 5.0382 10.7736 7.31175C7.50842 9.84215 5.48107 13.1742 4.74778 17.2136C4.67455 17.617 4.62238 18.0354 4.57223 18.4387C4.54915 18.6263 4.52508 18.8129 4.5 18.9996V20.9972C4.5331 21.231 4.56119 21.4688 4.58928 21.6985C4.64947 22.2002 4.71267 22.7189 4.818 23.2135C5.91142 28.3556 8.75532 32.1994 13.2725 34.6375C14.386 35.2395 15.6178 35.685 17.0373 36H17.9471C17.9752 35.9839 18.0113 35.9669 18.0544 35.9579C20.3376 35.4983 21.5965 33.9693 21.5975 31.6506V30.9181C21.6005 30.0663 21.6015 29.1864 21.5925 28.3205C21.5905 28.0616 21.6477 27.7817 22.0881 27.6703C24.8106 26.9841 26.7808 24.6373 26.9894 21.832C27.0195 21.4266 27.0115 21.0082 27.0035 20.6039C26.9994 20.4122 26.9954 20.2216 26.9954 20.033V19.8293L27.1951 19.7872C27.6715 19.6878 28.458 19.3939 28.3707 18.54C28.3517 18.3624 28.2002 17.4795 27.0265 17.5307C26.6483 17.5477 26.2671 17.5427 25.899 17.5387C25.7315 17.5367 25.5639 17.5357 25.3964 17.5357H24.313V15.833C24.314 14.9812 24.314 14.1294 24.311 13.2786C24.309 12.7518 24.0201 12.3314 23.5557 12.1799C23.2126 12.0685 22.8565 12.1187 22.5796 12.3174C22.2797 12.5331 22.1051 12.8923 22.1021 13.3026C22.0951 14.1424 22.0971 14.9963 22.0981 15.823C22.0991 16.1882 22.0991 16.5534 22.0991 16.9196V17.5066H18.8991V16.8484C18.8991 16.4942 18.8991 16.1401 18.9011 15.7859C18.9021 14.9702 18.9041 14.1254 18.8961 13.2956C18.8931 12.9465 18.7707 12.6374 18.55 12.4227C18.3474 12.2251 18.0665 12.1197 17.7665 12.1247C17.1336 12.1358 16.6902 12.6264 16.6892 13.3177C16.6872 14.1645 16.6882 15.0103 16.6882 15.8561V17.5357H16.4374C16.2478 17.5357 16.0632 17.5347 15.8816 17.5347C15.4653 17.5347 15.0731 17.5327 14.6779 17.5367C14.5836 17.5377 14.4893 17.5377 14.396 17.5367C14.086 17.5367 13.7941 17.5357 13.5082 17.5768C13.0167 17.6471 12.6465 18.0745 12.6264 18.5942C12.6074 19.1139 12.9294 19.5584 13.4259 19.6999C13.5032 19.722 13.5804 19.74 13.6607 19.7591C13.7008 19.7691 13.7419 19.7791 13.7841 19.7892L13.9747 19.8363V20.033C13.9747 20.1805 13.9737 20.326 13.9737 20.4714C13.9727 20.7835 13.9707 21.0795 13.9757 21.3785C14.0188 24.4095 16.0171 26.9419 18.9472 27.6804C19.2662 27.7606 19.4077 27.9402 19.4047 28.2633C19.4007 28.8543 19.4017 29.4553 19.4017 30.0372C19.4027 30.6091 19.4037 31.182 19.3996 31.7539C19.3946 32.4552 19.1238 33.0432 18.6373 33.4084C18.1477 33.7756 17.5047 33.8709 16.8256 33.6783C14.2505 32.9449 12.0807 31.5613 10.3784 29.5646C7.10616 25.7279 6.00471 21.4186 7.10516 16.7591C8.09124 12.5812 10.9081 9.17694 14.8344 7.4171C18.8028 5.63819 23.2758 5.80876 27.1058 7.88365C29.735 9.30838 31.8647 11.618 33.1025 14.3872C34.3434 17.1645 34.6343 20.2878 33.9211 23.1834C32.8056 27.7165 30.0179 30.9522 25.6352 32.8014C24.932 33.0984 24.6451 33.6883 24.9059 34.3054C25.1587 34.9064 25.7856 35.1241 26.4658 34.8472C33.6653 31.9074 37.6678 24.5329 36.1982 16.9136ZM17.8408 24.7456C16.8436 23.96 16.2438 22.8082 16.1946 21.5851C16.1806 21.227 16.1846 20.8637 16.1876 20.5126C16.1896 20.347 16.1916 20.1815 16.1916 20.0139V19.7631H24.7354L24.7664 19.9788C25.1858 22.9236 23.8335 25.0747 21.2374 25.5924C20.9796 25.6446 20.7188 25.6697 20.458 25.6697C19.5301 25.6697 18.6082 25.3486 17.8408 24.7456Z" fill="#F2F2F2"/>
</svg>
