<svg width="41" height="40" viewBox="0 0 41 40" fill="none" xmlns="http://www.w3.org/2000/svg">
<path d="M18.0859 22.6604V14.5253C18.0859 13.192 19.1668 12.1111 20.5002 12.1111C21.8335 12.1111 22.9144 13.192 22.9144 14.5253V22.6622V22.664C23.8868 23.3982 24.5251 24.552 24.5251 25.864C24.5233 28.088 22.7224 29.8889 20.5002 29.8889C18.2779 29.8889 16.4771 28.088 16.4771 25.8658C16.4771 24.5538 17.1153 23.3982 18.0877 22.6658" stroke="#F2F2F2" stroke-width="2" stroke-linecap="round" stroke-linejoin="round"/>
<path fill-rule="evenodd" clip-rule="evenodd" d="M20.5 37C29.3366 37 36.5 29.8366 36.5 21C36.5 12.1634 29.3366 5 20.5 5C11.6634 5 4.5 12.1634 4.5 21C4.5 29.8366 11.6634 37 20.5 37Z" stroke="#F2F2F2" stroke-width="2" stroke-linecap="round" stroke-linejoin="round"/>
</svg>
