<svg width="41" height="40" viewBox="0 0 41 40" fill="none" xmlns="http://www.w3.org/2000/svg">
<path d="M20.779 36.1893C20.0936 35.9544 19.3956 35.7482 18.7235 35.4787C13.6671 33.4518 10.045 29.9471 8.0736 24.7763C7.36733 22.9225 7.03502 20.9877 7.03335 18.9988C7.03002 15.8895 7.03085 12.7811 7.03085 9.6727C7.03085 9.61018 7.03585 9.54681 7.04085 9.43697C12.4345 9.55949 17.0936 7.79109 20.9031 3.80989C24.6952 7.7742 29.3475 9.55695 34.762 9.43528C34.7687 9.52062 34.777 9.58145 34.777 9.64144C34.777 12.7921 34.8012 15.9436 34.7687 19.0934C34.727 23.1397 33.3786 26.7212 30.8575 29.844C28.3573 32.9406 25.1582 34.9642 21.372 36.0617C21.2554 36.0955 21.143 36.147 21.0289 36.1901L20.779 36.1893ZM8.92063 11.3093C8.91397 11.4098 8.90481 11.4825 8.90481 11.5552C8.90481 14.0848 8.89315 16.6145 8.91147 19.1441C8.92896 21.5251 9.5053 23.7767 10.6122 25.8721C12.7976 30.0079 16.1649 32.7023 20.5616 34.1074C20.7465 34.1666 20.9772 34.1961 21.1563 34.1412C24.4694 33.1214 27.2654 31.2947 29.4492 28.5615C31.6604 25.7935 32.8598 22.6285 32.8956 19.0503C32.9206 16.5528 32.9022 14.0544 32.9014 11.556C32.9014 11.4766 32.8856 11.3963 32.8764 11.3068C28.3398 11.0296 24.3387 9.44542 20.9031 6.44093C17.445 9.45979 13.4423 11.0406 8.92063 11.3093Z" fill="#F2F2F2"/>
<path d="M11.345 13.5769C12.2378 13.3665 13.1115 13.1806 13.9743 12.9525C16.3847 12.3154 18.5868 11.2204 20.6265 9.78325C20.8205 9.64637 20.9579 9.61595 21.1703 9.76804C23.868 11.713 26.8755 12.8993 30.1253 13.4814C30.1869 13.4924 30.2477 13.5034 30.3085 13.5177C30.3485 13.527 30.3877 13.5422 30.4651 13.5667V13.8929C30.4651 15.505 30.4368 17.1179 30.471 18.73C30.5417 22.0851 29.3333 24.94 27.197 27.4317C25.5545 29.3479 23.5565 30.7488 21.1653 31.5464C21.0196 31.5945 20.8297 31.6114 20.6906 31.5599C16.0274 29.8371 12.9616 26.591 11.6423 21.7243C11.4441 20.9918 11.3716 20.2077 11.3566 19.4448C11.3175 17.4964 11.3433 15.5472 11.3433 13.576L11.345 13.5769ZM13.2164 17.5885C13.1923 17.5902 13.169 17.5919 13.1448 17.5936C13.2239 18.7148 13.1665 19.8681 13.4072 20.9521C14.32 25.0609 16.8269 27.8507 20.604 29.5245C20.823 29.6217 21.0112 29.6082 21.227 29.5186C23.5498 28.5554 25.3896 26.994 26.7789 24.8902C27.9066 23.1835 28.5845 21.3188 28.5903 19.2386C28.5937 17.9535 28.5845 16.6676 28.597 15.3824C28.5995 15.1577 28.5312 15.0757 28.3197 15.0284C25.7394 14.4463 23.3283 13.4451 21.102 11.9986C20.9588 11.9057 20.8563 11.9023 20.7122 11.9961C18.4777 13.451 16.054 14.4497 13.4646 15.0386C13.2497 15.0876 13.2089 15.1788 13.2114 15.3757C13.2214 16.1133 13.2156 16.8509 13.2156 17.5885H13.2164Z" fill="#F2F2F2"/>
<path d="M17.7447 18.1166C18.1045 18.2188 18.441 18.3143 18.7899 18.4131C19.4179 16.4597 20.8588 15.4695 22.7352 14.9237C22.766 15.1729 22.8177 15.4162 22.8235 15.6613C22.8552 16.8974 23.3016 17.9738 24.022 18.953C24.4393 19.5208 24.7966 20.1148 24.9348 20.8329C25.3838 23.1505 23.7905 25.4098 21.4543 25.7419C19.1905 26.0629 17.0501 24.3604 16.8319 22.069C16.7228 20.9242 16.9918 19.8554 17.439 18.8187C17.5348 18.5973 17.6314 18.3768 17.7439 18.1174L17.7447 18.1166ZM18.8332 20.413C18.7824 20.7392 18.72 21.0357 18.6917 21.3348C18.5509 22.8252 19.6811 23.9811 21.1503 23.8594C22.7619 23.7259 23.6714 21.7944 22.7652 20.4434C22.4146 19.9213 22.0714 19.3932 21.7541 18.8499C21.5676 18.5314 21.4393 18.1774 21.2777 17.8259C20.3616 18.6742 20.5231 19.803 20.4682 20.8887C19.9143 20.7273 19.3979 20.5778 18.8332 20.4139V20.413Z" fill="#F2F2F2"/>
</svg>
