<svg width="41" height="40" viewBox="0 0 41 40" fill="none" xmlns="http://www.w3.org/2000/svg">
<g clip-path="url(#clip0_444_972)">
<path d="M5.80605 15.632V26.9296C5.85227 27.1793 5.89178 27.4313 5.94546 27.6795C6.58656 30.6554 8.96012 32.649 11.8831 32.6506C17.3511 32.6546 22.8198 32.653 28.2878 32.6491C28.6031 32.6491 28.9222 32.6348 29.233 32.585C32.2537 32.1014 34.3723 29.4922 34.3752 26.2547C34.3782 22.9422 34.379 19.6305 34.3723 16.3179C34.3723 15.9449 34.3529 15.5664 34.288 15.2006C33.7312 12.0398 31.3464 9.9473 28.3079 9.93861C27.2568 9.93544 26.2064 9.93861 25.1553 9.93703C25.0577 9.93703 24.96 9.92675 24.843 9.91964C24.843 9.42023 24.8557 8.95717 24.8408 8.4949C24.7878 6.80703 23.6346 5.2527 22.0587 5.00853C20.9286 4.8331 19.7619 4.92081 18.6109 4.90738C18.4007 4.90501 18.1852 4.95795 17.9802 5.01643C16.4513 5.44788 15.3808 6.88289 15.3383 8.55891C15.3271 9.00854 15.3368 9.45816 15.3368 9.93861C15.1944 9.93861 15.0945 9.93861 14.9939 9.93861C13.869 9.94019 12.7433 9.92201 11.6184 9.94651C8.89079 10.005 6.57835 12.0097 5.96335 14.8292C5.9052 15.0955 5.85824 15.3641 5.80531 15.632H5.80605ZM20.0981 30.1236C17.3555 30.1236 14.613 30.1251 11.8704 30.1236C9.74136 30.122 8.19601 28.4886 8.19229 26.2279C8.18781 22.9367 8.18707 19.6447 8.19229 16.3527C8.19601 14.0919 9.73987 12.4546 11.8697 12.4538C17.3458 12.4507 22.822 12.4515 28.2975 12.4562C28.5658 12.4562 28.8387 12.4752 29.1011 12.5313C30.8239 12.9019 31.9831 14.4001 31.9875 16.2784C31.995 19.6194 31.9905 22.9604 31.9875 26.3013C31.9875 26.5171 31.9801 26.7367 31.9435 26.9485C31.6178 28.849 30.1798 30.1204 28.3534 30.1228C25.6011 30.1259 22.8496 30.1236 20.0974 30.1236H20.0981ZM22.4448 9.91727H17.7327C17.7327 9.41628 17.694 8.93268 17.7424 8.45855C17.8036 7.86037 18.2859 7.42497 18.8517 7.41549C19.6784 7.40126 20.5051 7.40126 21.3311 7.41549C21.8857 7.42497 22.3718 7.84931 22.4336 8.43011C22.4851 8.91292 22.4441 9.4068 22.4441 9.91727H22.4448Z" fill="#F2F2F2"/>
<path d="M18.9051 20.024C18.1641 20.024 17.4589 20.0225 16.7544 20.0256C16.6061 20.0256 16.4562 20.0296 16.3109 20.0572C15.6944 20.1726 15.2993 20.7218 15.3395 21.3958C15.3768 22.0225 15.8695 22.5353 16.4786 22.5487C17.1756 22.5637 17.8726 22.5527 18.5696 22.5535C18.6695 22.5535 18.7702 22.5535 18.9051 22.5535C18.9051 22.7731 18.9051 22.9667 18.9051 23.1611C18.9066 23.821 18.8946 24.4816 18.9125 25.1414C18.9312 25.8194 19.4605 26.3409 20.0956 26.3385C20.7292 26.3362 21.2548 25.8115 21.2704 25.1327C21.2868 24.3939 21.2757 23.655 21.2771 22.9162C21.2771 22.8095 21.2771 22.7028 21.2771 22.5716C21.3867 22.5653 21.4762 22.5551 21.5649 22.5551C22.2433 22.5535 22.9216 22.5574 23.6 22.5535C24.3224 22.5495 24.8427 22.0225 24.8457 21.3002C24.8487 20.5764 24.3373 20.0398 23.6142 20.0288C22.9455 20.0185 22.2761 20.0264 21.6066 20.0264C21.5068 20.0264 21.4076 20.0264 21.2764 20.0264C21.2764 19.5807 21.2764 19.169 21.2764 18.7581C21.2764 18.3346 21.2839 17.911 21.2727 17.4875C21.2555 16.7858 20.7456 16.2508 20.1001 16.2437C19.4485 16.2358 18.9207 16.7795 18.9081 17.4962C18.8961 18.2153 18.9043 18.9343 18.9043 19.6534C18.9043 19.7601 18.9043 19.8676 18.9043 20.0264L18.9051 20.024Z" fill="#F2F2F2"/>
</g>
<defs>
<clipPath id="clip0_444_972">
<rect width="28.5714" height="27.7551" fill="white" transform="matrix(-1 0 0 1 34.3774 4.89796)"/>
</clipPath>
</defs>
</svg>
