<svg width="41" height="40" viewBox="0 0 41 40" fill="none" xmlns="http://www.w3.org/2000/svg">
<path d="M20.3602 37.9983C19.6193 37.7444 18.8649 37.5216 18.1384 37.2302C12.6731 35.0394 8.75804 31.2512 6.62719 25.6622C5.86379 23.6585 5.5046 21.5672 5.5028 19.4174C5.4992 16.0567 5.5001 12.6968 5.5001 9.337C5.5001 9.26942 5.5055 9.20093 5.5109 9.08221C11.3408 9.21463 16.3767 7.30321 20.4944 3C24.5931 7.28494 29.6218 9.21189 35.4742 9.08038C35.4814 9.17262 35.4904 9.23837 35.4904 9.30321C35.4904 12.7087 35.5165 16.1151 35.4814 19.5197C35.4364 23.8932 33.9789 27.7645 31.2539 31.1398C28.5514 34.4869 25.0936 36.6741 21.0012 37.8604C20.8752 37.8969 20.7536 37.9526 20.6303 37.9992L20.3602 37.9983ZM7.54273 11.106C7.53552 11.2146 7.52562 11.2932 7.52562 11.3717C7.52562 14.106 7.51302 16.8402 7.53282 19.5745C7.55173 22.148 8.17469 24.5818 9.37109 26.8466C11.7333 31.317 15.3729 34.2293 20.1253 35.748C20.3251 35.812 20.5745 35.8439 20.768 35.7846C24.3491 34.6823 27.3712 32.7078 29.7316 29.7535C32.1217 26.7617 33.4181 23.3407 33.4568 19.4731C33.4838 16.7736 33.464 14.0731 33.4631 11.3726C33.4631 11.2868 33.446 11.2 33.4361 11.1032C28.5325 10.8037 24.2078 9.09134 20.4944 5.84384C16.7566 9.10687 12.4301 10.8155 7.54273 11.106Z" fill="#F2F2F2"/>
<path d="M21.6045 15.0961V15.5037C21.6045 15.7435 21.6603 15.98 21.7676 16.1945L22.2137 17.0867C22.3209 17.3012 22.3767 17.5377 22.3767 17.7774V18.9573" stroke="#F2F2F2" stroke-width="1.73074" stroke-linecap="round" stroke-linejoin="round"/>
<path d="M21.798 15.0961H13.6895" stroke="#F2F2F2" stroke-width="1.73074" stroke-linecap="round" stroke-linejoin="round"/>
<path d="M13.8821 15.0961V15.5037C13.8821 15.7435 13.8263 15.98 13.719 16.1945L13.2729 17.0867C13.1657 17.3012 13.1099 17.5377 13.1099 17.7774V25.1352C13.1099 26.4147 14.1471 27.452 15.4266 27.452H16.1988" stroke="#F2F2F2" stroke-width="1.73074" stroke-linecap="round" stroke-linejoin="round"/>
<path d="M22.3768 18.1851H13.1099" stroke="#F2F2F2" stroke-width="1.73074" stroke-linecap="round" stroke-linejoin="round"/>
<path fill-rule="evenodd" clip-rule="evenodd" d="M17.7432 25.4449V24.2846C17.7432 23.4861 18.0603 22.7204 18.6249 22.1558C19.1895 21.5912 19.9553 21.274 20.7537 21.274H23.9995C24.7979 21.274 25.5637 21.5911 26.1283 22.1558C26.6929 22.7204 27.0101 23.4861 27.0101 24.2846V25.4449C27.0102 25.9773 26.7988 26.4879 26.4224 26.8643C26.046 27.2407 25.5354 27.4521 25.003 27.452H19.7502C19.2179 27.4521 18.7073 27.2407 18.3309 26.8643C17.9544 26.4879 17.743 25.9773 17.7432 25.4449Z" stroke="#F2F2F2" stroke-width="1.73074" stroke-linecap="round" stroke-linejoin="round"/>
<path d="M27.7831 24.7491L16.9717 24.7492" stroke="#F2F2F2" stroke-width="1.73074" stroke-linecap="round" stroke-linejoin="round"/>
<path d="M17.7432 15.0961L17.9897 13.4381C18.0459 13.0596 18.3708 12.7793 18.7535 12.7794H20.446" stroke="#F2F2F2" stroke-width="1.73074" stroke-linecap="round" stroke-linejoin="round"/>
</svg>
