<svg width="41" height="40" viewBox="0 0 41 40" fill="none" xmlns="http://www.w3.org/2000/svg">
<path d="M22.676 23.5893C23.391 24.3043 23.6049 25.3796 23.218 26.3138C22.831 27.248 21.9194 27.8571 20.9083 27.8571C19.8971 27.8571 18.9855 27.248 18.5986 26.3138C18.2116 25.3796 18.4255 24.3043 19.1405 23.5893C20.1168 22.613 21.6997 22.613 22.676 23.5893" stroke="#F2F2F2" stroke-width="2" stroke-linecap="round" stroke-linejoin="round"/>
<path d="M29.1047 17.1608C30.081 18.1371 30.081 19.72 29.1047 20.6963C28.1284 21.6727 26.5455 21.6727 25.5691 20.6963C24.5928 19.72 24.5928 18.1371 25.5691 17.1608C26.038 16.692 26.6739 16.4286 27.3369 16.4286C28 16.4286 28.6358 16.692 29.1047 17.1608" stroke="#F2F2F2" stroke-width="2" stroke-linecap="round" stroke-linejoin="round"/>
<path d="M33.7651 21.0204V9.94898C33.7651 8.17378 32.326 6.7347 30.5508 6.7347H20.9079H11.2651C9.48987 6.7347 8.05078 8.17378 8.05078 9.94898V21.0204" stroke="#F2F2F2" stroke-width="2" stroke-linecap="round" stroke-linejoin="round"/>
<path d="M28.0508 25.3061C29.5978 25.2969 31.1044 25.7991 32.3365 26.7347" stroke="#F2F2F2" stroke-width="2" stroke-linecap="round" stroke-linejoin="round"/>
<path d="M16.9795 19.2347C16.9795 20.6154 15.8602 21.7347 14.4795 21.7347C13.0988 21.7347 11.9795 20.6154 11.9795 19.2347C11.9795 17.854 13.0988 16.7347 14.4795 16.7347C15.8602 16.7347 16.9795 17.854 16.9795 19.2347" stroke="#F2F2F2" stroke-width="2" stroke-linecap="round" stroke-linejoin="round"/>
<path d="M9.47949 26.7347C10.6908 25.8151 12.172 25.3215 13.6928 25.3306" stroke="#F2F2F2" stroke-width="2" stroke-linecap="round" stroke-linejoin="round"/>
<path d="M25.194 32.449C22.6543 30.5442 19.1622 30.5442 16.6226 32.449" stroke="#F2F2F2" stroke-width="2" stroke-linecap="round" stroke-linejoin="round"/>
</svg>
