<svg width="41" height="40" viewBox="0 0 41 40" fill="none" xmlns="http://www.w3.org/2000/svg">
<path fill-rule="evenodd" clip-rule="evenodd" d="M3.8335 29.1667V28.49C3.83899 26.5648 5.3983 25.0055 7.3235 25H12.0102C13.9354 25.0055 15.4947 26.5648 15.5002 28.49V29.1667C15.5002 29.6269 15.1271 30 14.6668 30H4.66683C4.20659 30 3.8335 29.6269 3.8335 29.1667Z" stroke="#F2F2F2" stroke-width="2" stroke-linecap="round" stroke-linejoin="round"/>
<path fill-rule="evenodd" clip-rule="evenodd" d="M21.9455 15.0001V17.4984C21.9455 17.8201 22.1306 18.113 22.4211 18.2511C22.7116 18.3892 23.0556 18.3477 23.305 18.1446L27.1665 15.0001H31.1121C32.9531 15.0001 34.4455 13.5077 34.4455 11.6668V6.66666C34.4455 4.82571 32.9531 3.33333 31.1121 3.33333H20.4998C18.6589 3.33333 17.1665 4.82571 17.1665 6.66666V11.6667C17.1665 13.5076 18.6589 15 20.4998 15L21.9455 15.0001Z" stroke="#F2F2F2" stroke-width="2" stroke-linecap="round" stroke-linejoin="round"/>
<circle cx="9.66683" cy="17.5" r="3.33333" stroke="#F2F2F2" stroke-width="2" stroke-linecap="round" stroke-linejoin="round"/>
<path fill-rule="evenodd" clip-rule="evenodd" d="M25.5 35.8333V35.1567C25.5055 33.2315 27.0648 31.6721 28.99 31.6667H33.6767C35.6019 31.6721 37.1612 33.2315 37.1667 35.1567V35.8333C37.1667 36.2936 36.7936 36.6667 36.3333 36.6667H26.3333C25.8731 36.6667 25.5 36.2936 25.5 35.8333Z" stroke="#F2F2F2" stroke-width="2" stroke-linecap="round" stroke-linejoin="round"/>
<circle cx="31.3333" cy="24.1667" r="3.33333" stroke="#F2F2F2" stroke-width="2" stroke-linecap="round" stroke-linejoin="round"/>
</svg>
