<svg width="41" height="40" viewBox="0 0 41 40" fill="none" xmlns="http://www.w3.org/2000/svg">
<path d="M33.9324 26.0614C33.9013 25.9133 33.8716 25.7727 33.836 25.6336C33.3208 23.6122 31.6178 22.3029 29.4982 22.3C26.8181 22.2955 24.0921 22.2963 21.4565 22.297C20.3363 22.2978 19.216 22.2978 18.0958 22.2978H17.39V21.5643C17.39 20.4607 17.3908 19.3572 17.3908 18.2537C17.3915 15.6188 17.3922 12.8936 17.3885 10.2136C17.3863 8.26775 16.2876 6.65055 14.5224 5.99405C14.2911 5.90745 14.0449 5.85194 13.7839 5.79273C13.675 5.76757 13.5623 5.7424 13.4511 5.71428H10.1549C10.014 5.75499 9.87244 5.79051 9.73454 5.8253C9.40982 5.90671 9.10363 5.98369 8.8308 6.11321C7.11748 6.9281 6.24413 8.26627 6.23449 10.0892C6.20336 16.1339 6.21448 22.1275 6.22708 27.9243C6.23301 30.6998 8.33111 33.063 11.1068 33.422C11.1765 33.4316 11.2344 33.4524 11.2781 33.4694H30.0476C30.1084 33.4553 30.1699 33.4413 30.2314 33.4279C30.3916 33.3917 30.5436 33.3584 30.6948 33.3184C32.4037 32.8684 33.6707 31.4444 33.9228 29.6888C33.9324 29.6222 33.9531 29.5659 33.9695 29.523V26.2338C33.9569 26.1761 33.945 26.1184 33.9324 26.0614ZM32.2517 29.2188C32.2109 30.5784 31.0974 31.6923 29.7169 31.7552C29.6168 31.7597 29.5182 31.7619 29.4241 31.7619H25.4718L19.5252 31.7626C16.9897 31.7626 14.4542 31.7626 11.9186 31.7619C10.1075 31.7611 8.61284 30.6931 8.11241 29.0419C7.99749 28.6637 7.93596 28.244 7.93522 27.8288C7.92632 22.277 7.92632 16.7801 7.93003 10.2336C7.93077 8.56158 9.05544 7.43139 10.7287 7.42177C11.462 7.41807 12.1915 7.41807 12.8965 7.42177C14.5305 7.43213 15.6826 8.57787 15.6974 10.2091C15.7026 10.7243 15.7012 11.2283 15.7004 11.7627C15.6997 12.0017 15.6989 12.243 15.6989 12.4873V12.8203H15.3653C15.1132 12.8203 14.8649 12.8196 14.6202 12.8188C14.0501 12.8174 13.5119 12.8159 12.967 12.8233C12.5814 12.8285 12.2352 13.1142 12.1618 13.4887C12.0825 13.8913 12.2715 14.2769 12.6207 14.4264C12.7557 14.4842 12.9358 14.5167 13.1412 14.5212C13.6638 14.5315 14.1776 14.53 14.7218 14.5278C14.9279 14.5278 15.1355 14.5263 15.3446 14.5263H15.6782V17.5157L15.3638 17.5343C15.3364 17.5357 15.3075 17.538 15.2793 17.5402C15.2089 17.5454 15.1362 17.5505 15.0576 17.5513C14.8248 17.5513 14.5913 17.5505 14.3585 17.5505C13.9159 17.5491 13.4585 17.5476 13.01 17.5557C12.6081 17.5624 12.3079 17.7778 12.187 18.1456C12.0714 18.4972 12.1811 18.8687 12.4539 19.0493C12.6237 19.1611 12.8535 19.2373 13.0552 19.2477C13.5267 19.2721 14.0116 19.2669 14.4816 19.2625C14.6751 19.261 14.8693 19.2588 15.0628 19.2588H15.6826V22.2637L15.3683 22.2815C15.3401 22.283 15.3119 22.2844 15.2838 22.2867C15.2133 22.2918 15.1399 22.297 15.0621 22.297C14.8241 22.2978 14.5869 22.297 14.3496 22.297C13.8929 22.2955 13.4214 22.2941 12.9588 22.3029C12.551 22.3111 12.2063 22.6131 12.1566 23.0053C12.101 23.4531 12.3375 23.8335 12.746 23.9512C12.8595 23.9838 12.9988 23.9875 13.1212 23.989C13.5875 23.9927 14.062 23.9919 14.5209 23.9912H15.6989V24.7913C15.6989 24.9867 15.6982 25.1828 15.6974 25.379C15.696 25.8127 15.6945 26.2612 15.7026 26.7001C15.7115 27.1886 16.0659 27.5416 16.5463 27.5416H16.553C17.0267 27.5379 17.3774 27.1871 17.3863 26.7068C17.3952 26.2338 17.393 25.7505 17.3915 25.2827C17.3908 25.0748 17.39 24.8668 17.39 24.6595V24.0097H20.4297V24.9223C20.4289 25.4522 20.4289 26.0007 20.4319 26.5365C20.4319 26.6668 20.4378 26.8037 20.4682 26.9214C20.5698 27.3151 20.9108 27.5564 21.3297 27.5402C21.7308 27.5231 22.0481 27.2434 22.103 26.86C22.1341 26.6401 22.1341 26.41 22.1334 26.1665C22.1334 26.0887 22.1334 26.0118 22.1341 25.9348C22.1378 25.6128 22.1385 25.2901 22.1393 24.9674C22.14 24.7824 22.14 24.5966 22.1415 24.4109C22.1415 24.328 22.1704 24.2651 22.1845 24.2354C22.1867 24.231 22.189 24.2266 22.1904 24.2214L22.2742 24.0097H25.1278L25.1448 24.325C25.1463 24.3553 25.1485 24.3857 25.15 24.416C25.1552 24.4871 25.1604 24.5604 25.1604 24.6381C25.1604 24.886 25.1604 25.134 25.1597 25.3819C25.1597 25.7838 25.1589 26.199 25.1619 26.6061C25.1671 27.1642 25.5081 27.5402 26.0115 27.5424H26.0152C26.2487 27.5424 26.4504 27.4639 26.5987 27.3166C26.7699 27.1464 26.8648 26.8881 26.8656 26.5898C26.8671 26.0762 26.8663 25.5632 26.8663 25.054V24.2377L26.9783 24.134C27.0079 24.1015 27.0984 24.0038 27.2533 24.0038H27.2555C27.5165 24.0053 27.7827 24.0023 28.0407 24.0001C28.653 23.9934 29.2862 23.9868 29.9126 24.0371C31.1893 24.1407 32.2176 25.2502 32.2532 26.5639C32.2776 27.478 32.2769 28.3713 32.2517 29.2188Z" fill="#F2F2F2"/>
</svg>
