<svg width="30" height="30" viewBox="0 0 30 30" fill="none" xmlns="http://www.w3.org/2000/svg">
<path d="M29.9338 16.403H0.0678711V16.4034H29.9338V16.403Z" fill="#C42126"/>
<path d="M28.3772 8.21448H1.62354V8.21492H28.3772V8.21448Z" fill="#C42126"/>
<path d="M29.4395 10.9436H0.559082V10.944H29.4395V10.9436Z" fill="#C42126"/>
<path d="M6.44724 27.3199H23.5535L23.5544 27.319H6.44629L6.44724 27.3199Z" fill="#C42126"/>
<path d="M15.0001 0C14.7055 0 14.4132 0.0106402 14.123 0.0272338H15.8773C15.587 0.0106402 15.2947 0 15.0001 0Z" fill="#C42126"/>
<path d="M29.9374 13.6732H0.0620117V13.6737H29.9374V13.6732Z" fill="#C42126"/>
<path d="M18.2827 2.75661H23.6612C21.4377 1.18092 18.7683 0.194171 15.8774 0.0272217H15.4155C16.7762 0.198478 17.4012 1.20549 18.2827 2.75661Z" fill="#DC3027"/>
<path d="M19.6731 8.21461H28.3767C27.8807 7.23907 27.2848 6.32364 26.5961 5.48547H18.9932C19.2613 6.33409 19.4889 7.24952 19.6731 8.21461Z" fill="#DC3027"/>
<path d="M29.9382 13.673C29.856 12.7358 29.6871 11.824 29.4405 10.9443H20.1499C20.2432 11.8379 20.3048 12.7522 20.3349 13.673H29.9382Z" fill="#DC3027"/>
<path d="M29.4191 19.1315C29.6709 18.2521 29.8457 17.3403 29.9325 16.4028H20.5651C20.5332 17.3244 20.4697 18.2384 20.3745 19.1315H29.4191Z" fill="#DC3027"/>
<path d="M19.23 24.5901H26.5326C27.2294 23.7529 27.8343 22.8375 28.3375 21.861H19.9185C19.7317 22.8267 19.5017 23.7426 19.23 24.5901Z" fill="#DC3027"/>
<path d="M14.4562 29.9894C14.4258 29.9884 14.3956 29.987 14.3652 29.9861C14.3956 29.987 14.4259 29.9884 14.4562 29.9894Z" fill="#DC3027"/>
<path d="M15 29.9999C18.1801 29.9999 21.1266 29.0073 23.5534 27.3198H18.1247C17.1612 28.9798 16.5255 29.9999 15 29.9999Z" fill="#DC3027"/>
<path d="M15.0001 30C14.8179 30 14.637 29.9958 14.4565 29.9894C14.6389 29.9955 14.82 30 15.0001 30Z" fill="#C42126"/>
<path d="M18.779 2.75671H6.33904C5.24342 3.53288 4.25483 4.44964 3.40381 5.48541H19.9296C19.6065 4.46364 19.224 3.53972 18.779 2.75671Z" fill="#F3F4F5"/>
<path d="M6.33936 2.75661H18.7793C17.8976 1.20549 16.7761 0.198478 15.4154 0.0272217H14.123C11.2321 0.194171 8.56258 1.18092 6.33936 2.75661Z" fill="#E73625"/>
<path d="M0.55957 10.9438H21.0058C20.9082 10.0061 20.7765 9.09119 20.6096 8.21509H1.62346C1.18386 9.08011 0.826271 9.99263 0.55957 10.9438Z" fill="#F3F4F5"/>
<path d="M3.40386 5.48535C2.71561 6.32352 2.11925 7.23889 1.62354 8.21449H20.6094C20.4253 7.24959 20.1978 6.33422 19.9296 5.48535H3.40386Z" fill="#E73625"/>
<path d="M0 15.0002C0 15.4729 0.0246371 15.9407 0.0675144 16.4023H21.1889C21.2202 15.4951 21.2207 14.5812 21.1911 13.6736H0.0618143C0.0234337 14.1111 0 14.5528 0 15.0002Z" fill="#F3F4F5"/>
<path d="M0.0620117 13.673H21.191C21.161 12.752 21.0991 11.838 21.006 10.9443H0.559376C0.312816 11.8242 0.143966 12.7358 0.0620117 13.673Z" fill="#E73625"/>
<path d="M0.581322 19.1315H20.9987C21.0937 18.2384 21.1573 17.3242 21.1893 16.4028H0.0678711C0.154766 17.3405 0.329822 18.2521 0.581322 19.1315Z" fill="#E73625"/>
<path d="M6.44607 27.3189H18.7335C19.1866 26.5385 19.5774 25.6162 19.9061 24.5902H3.46777C4.33203 25.6281 5.33455 26.5458 6.44607 27.3189Z" fill="#F3F4F5"/>
<path d="M1.66309 21.8608C2.1664 22.8373 2.77125 23.7528 3.46805 24.59H19.9064C20.1779 23.7426 20.4078 22.8267 20.5947 21.8608H1.66309Z" fill="#E73625"/>
<path d="M14.3656 29.986C14.396 29.987 14.4263 29.9884 14.4566 29.9893C14.6371 29.9957 14.818 29.9999 15.0001 29.9999C16.5257 29.9999 17.7695 28.9799 18.7332 27.3198H6.44727C8.71128 28.8944 11.4288 29.8636 14.3656 29.986Z" fill="#E73625"/>
<path d="M14.6899 0.0078125C7.00325 0.164185 0.738222 6.09918 0.0639648 13.6486H14.6902V0.0078125H14.6899Z" fill="#283991"/>
<path d="M3.00167 8.49866L3.23018 9.2023H3.97056L3.3716 9.63741L3.60037 10.3416L3.00167 9.9062L2.40316 10.3416L2.63148 9.63741L2.03271 9.2023H2.77309L3.00167 8.49866Z" fill="#EFEFEF"/>
<path d="M3.00167 10.9846L3.23018 11.6887H3.97056L3.3716 12.1238L3.60037 12.828L3.00167 12.3926L2.40316 12.828L2.63148 12.1238L2.03271 11.6887H2.77309L3.00167 10.9846Z" fill="#EFEFEF"/>
<path d="M5.48776 4.7688L5.71633 5.4727H6.45646L5.8577 5.90806L6.08627 6.6117L5.48776 6.17685L4.889 6.6117L5.11757 5.90806L4.51855 5.4727H5.25893L5.48776 4.7688Z" fill="#EFEFEF"/>
<path d="M5.48776 7.25525L5.71633 7.95915H6.45646L5.8577 8.394L6.08627 9.09815L5.48776 8.6633L4.889 9.09815L5.11757 8.394L4.51855 7.95915H5.25893L5.48776 7.25525Z" fill="#EFEFEF"/>
<path d="M5.48776 9.74158L5.71633 10.4457H6.45646L5.8577 10.8803L6.08627 11.5845L5.48776 11.1492L4.889 11.5845L5.11757 10.8803L4.51855 10.4457H5.25893L5.48776 9.74158Z" fill="#EFEFEF"/>
<path d="M1.11378 11.5845L0.885015 10.8804L1.48378 10.4455H0.743843L0.72725 10.3942C0.645992 10.6455 0.572587 10.8998 0.504883 11.157L0.515333 11.1492L1.11378 11.5845Z" fill="#EFEFEF"/>
<path d="M2.40265 7.85518L3.00116 7.41988L3.59992 7.85518L3.37116 7.15103L3.96992 6.71573H3.22954L3.00097 6.01208L2.77239 6.71573H2.49955C2.44888 6.79249 2.39986 6.86969 2.35059 6.9476L2.63103 7.15103L2.40265 7.85518Z" fill="#EFEFEF"/>
<path d="M5.48794 3.69042L6.08645 4.12527L5.85788 3.42162L6.45639 2.98633H6.02888C5.66578 3.25778 5.31548 3.54506 4.97892 3.84818L4.88867 4.12527L5.48794 3.69042Z" fill="#EFEFEF"/>
<path d="M7.37549 2.88243L7.97425 2.44714L8.57276 2.88243L8.34419 2.17828L8.9427 1.74343H8.20257L8.17154 1.64868C7.92073 1.77681 7.67253 1.91013 7.42996 2.05199L7.60381 2.17822L7.37549 2.88243Z" fill="#EFEFEF"/>
<path d="M7.97402 3.52588L8.2026 4.22933H8.94272L8.34396 4.66463L8.57253 5.36878L7.97402 4.93342L7.37526 5.36878L7.60384 4.66463L7.00488 4.22933H7.7452L7.97402 3.52588Z" fill="#EFEFEF"/>
<path d="M7.97402 6.01233L8.2026 6.71578H8.94272L8.34396 7.15108L8.57253 7.85523L7.97402 7.41987L7.37526 7.85523L7.60384 7.15108L7.00488 6.71578H7.7452L7.97402 6.01233Z" fill="#EFEFEF"/>
<path d="M7.97402 8.49866L8.2026 9.2023H8.94272L8.34396 9.63741L8.57253 10.3416L7.97402 9.9062L7.37526 10.3416L7.60384 9.63741L7.00488 9.2023H7.7452L7.97402 8.49866Z" fill="#EFEFEF"/>
<path d="M7.97402 10.9846L8.2026 11.6887H8.94272L8.34396 12.1238L8.57253 12.828L7.97402 12.3926L7.37526 12.828L7.60384 12.1238L7.00488 11.6887H7.7452L7.97402 10.9846Z" fill="#EFEFEF"/>
<path d="M10.4604 2.28247L10.6889 2.98637H11.4291L10.8305 3.42173L11.0589 4.12537L10.4604 3.69052L9.8614 4.12537L10.0902 3.42173L9.49121 2.98637H10.2315L10.4604 2.28247Z" fill="#EFEFEF"/>
<path d="M10.4604 4.7688L10.6889 5.4727H11.4291L10.8305 5.90806L11.0589 6.6117L10.4604 6.17685L9.8614 6.6117L10.0902 5.90806L9.49121 5.4727H10.2315L10.4604 4.7688Z" fill="#EFEFEF"/>
<path d="M10.4604 7.25525L10.6889 7.95915H11.4291L10.8305 8.394L11.0589 9.09815L10.4604 8.6633L9.8614 9.09815L10.0902 8.394L9.49121 7.95915H10.2315L10.4604 7.25525Z" fill="#EFEFEF"/>
<path d="M10.4604 9.74158L10.6889 10.4457H11.4291L10.8305 10.8803L11.0589 11.5845L10.4604 11.1492L9.8614 11.5845L10.0902 10.8803L9.49121 10.4457H10.2315L10.4604 9.74158Z" fill="#EFEFEF"/>
<path d="M12.9467 1.03955L13.1753 1.74345H13.9154L13.3166 2.1783L13.5452 2.88245L12.9467 2.44709L12.3477 2.88245L12.5765 2.1783L11.9775 1.74345H12.7177L12.9467 1.03955Z" fill="#EFEFEF"/>
<path d="M12.9467 3.52588L13.1753 4.22933H13.9154L13.3166 4.66463L13.5452 5.36878L12.9467 4.93342L12.3477 5.36878L12.5765 4.66463L11.9775 4.22933H12.7177L12.9467 3.52588Z" fill="#EFEFEF"/>
<path d="M12.9467 6.01233L13.1753 6.71578H13.9154L13.3166 7.15108L13.5452 7.85523L12.9467 7.41987L12.3477 7.85523L12.5765 7.15108L11.9775 6.71578H12.7177L12.9467 6.01233Z" fill="#EFEFEF"/>
<path d="M12.9467 8.49866L13.1753 9.2023H13.9154L13.3166 9.63741L13.5452 10.3416L12.9467 9.9062L12.3477 10.3416L12.5765 9.63741L11.9775 9.2023H12.7177L12.9467 8.49866Z" fill="#EFEFEF"/>
<path d="M12.9467 10.9846L13.1753 11.6887H13.9154L13.3166 12.1238L13.5452 12.828L12.9467 12.3926L12.3477 12.828L12.5765 12.1238L11.9775 11.6887H12.7177L12.9467 10.9846Z" fill="#EFEFEF"/>
</svg>
