<svg width="30" height="31" viewBox="0 0 30 31" fill="none" xmlns="http://www.w3.org/2000/svg">
<path d="M29.9953 16.9031H0.129395V16.9035H29.9953V16.9031Z" fill="#323232"/>
<path d="M28.4387 8.71436H1.68506V8.7148H28.4387V8.71436Z" fill="#323232"/>
<path d="M29.5011 11.4436H0.620605V11.444H29.5011V11.4436Z" fill="#323232"/>
<path d="M6.50876 27.8198H23.615L23.6159 27.8188H6.50781L6.50876 27.8198Z" fill="#323232"/>
<path d="M15.0616 0.5C14.767 0.5 14.4747 0.51064 14.1846 0.527234H15.9389C15.6485 0.51064 15.3563 0.5 15.0616 0.5Z" fill="#323232"/>
<path d="M29.999 14.1733H0.123535V14.1738H29.999V14.1733Z" fill="#323232"/>
<path d="M18.3443 3.25649H23.7227C21.4993 1.6808 18.8298 0.694049 15.9389 0.5271H15.4771C16.8377 0.698356 17.4627 1.70537 18.3443 3.25649Z" fill="#323232"/>
<path d="M19.7346 8.71474H28.4382C27.9422 7.7392 27.3464 6.82376 26.6576 5.9856H19.0547C19.3228 6.83421 19.5504 7.74965 19.7346 8.71474Z" fill="#323232"/>
<path d="M29.9997 14.173C29.9175 13.2358 29.7486 12.324 29.5021 11.4443H20.2114C20.3047 12.3379 20.3663 13.2522 20.3964 14.173H29.9997Z" fill="#323232"/>
<path d="M29.4806 19.6315C29.7324 18.7521 29.9072 17.8403 29.9941 16.9028H20.6267C20.5947 17.8244 20.5312 18.7384 20.436 19.6315H29.4806Z" fill="#323232"/>
<path d="M19.2915 25.09H26.5941C27.2909 24.2528 27.8958 23.3373 28.399 22.3608H19.98C19.7932 23.3266 19.5632 24.2425 19.2915 25.09Z" fill="#323232"/>
<path d="M14.5177 30.4891C14.4874 30.4882 14.4571 30.4868 14.4268 30.4858C14.4571 30.4867 14.4874 30.4882 14.5177 30.4891Z" fill="#323232"/>
<path d="M15.0615 30.4999C18.2416 30.4999 21.1882 29.5073 23.6149 27.8198H18.1862C17.2227 29.4798 16.587 30.4999 15.0615 30.4999Z" fill="#323232"/>
<path d="M15.0616 30.4999C14.8795 30.4999 14.6985 30.4957 14.5181 30.4893C14.7004 30.4954 14.8815 30.4999 15.0616 30.4999Z" fill="#323232"/>
<path d="M18.8405 3.25659H6.40056C5.30494 4.03275 4.31636 4.94952 3.46533 5.98529H19.9911C19.668 4.96352 19.2855 4.03959 18.8405 3.25659Z" fill="#F3F4F5"/>
<path d="M6.40088 3.25649H18.8408C17.9591 1.70537 16.8376 0.698356 15.4769 0.5271H14.1845C11.2936 0.694049 8.6241 1.6808 6.40088 3.25649Z" fill="#323232"/>
<path d="M0.621094 11.4438H21.0673C20.9697 10.5061 20.838 9.59119 20.6711 8.71509H1.68498C1.24538 9.58011 0.887795 10.4926 0.621094 11.4438Z" fill="#F3F4F5"/>
<path d="M3.46539 5.98535C2.77713 6.82352 2.18078 7.73889 1.68506 8.71449H20.6709C20.4869 7.74959 20.2593 6.83422 19.9911 5.98535H3.46539Z" fill="#323232"/>
<path d="M0.0615234 15.5002C0.0615234 15.9729 0.0861605 16.4407 0.129038 16.9023H21.2505C21.2817 15.9951 21.2822 15.0812 21.2526 14.1736H0.123338C0.0849571 14.6111 0.0615234 15.0528 0.0615234 15.5002Z" fill="#F3F4F5"/>
<path d="M0.123535 14.173H21.2526C21.2225 13.252 21.1607 12.338 21.0676 11.4443H0.6209C0.374339 12.3242 0.20549 13.2358 0.123535 14.173Z" fill="#323232"/>
<path d="M0.642846 19.6315H21.0602C21.1552 18.7384 21.2188 17.8242 21.2508 16.9028H0.129395C0.216289 17.8405 0.391345 18.7521 0.642846 19.6315Z" fill="#323232"/>
<path d="M6.50759 27.819H18.795C19.2481 27.0386 19.6389 26.1163 19.9677 25.0903H3.5293C4.39356 26.1282 5.39608 27.046 6.50759 27.819Z" fill="#F3F4F5"/>
<path d="M1.72461 22.3608C2.22793 23.3373 2.83277 24.2528 3.52957 25.09H19.9679C20.2394 24.2426 20.4694 23.3267 20.6562 22.3608H1.72461Z" fill="#323232"/>
<path d="M14.4272 30.486C14.4575 30.487 14.4878 30.4884 14.5181 30.4893C14.6986 30.4957 14.8796 30.4999 15.0616 30.4999C16.5872 30.4999 17.8311 29.4799 18.7948 27.8198H6.50879C8.7728 29.3944 11.4903 30.3636 14.4272 30.486Z" fill="#323232"/>
<path d="M14.7515 0.507812C7.06478 0.664185 0.799746 6.59918 0.125488 14.1486H14.7517V0.507812H14.7515Z" fill="#323232"/>
<path d="M3.06319 8.99854L3.2917 9.70218H4.03208L3.43313 10.1373L3.66189 10.8414L3.06319 10.4061L2.46468 10.8414L2.693 10.1373L2.09424 9.70218H2.83462L3.06319 8.99854Z" fill="#EFEFEF"/>
<path d="M3.06319 11.4846L3.2917 12.1887H4.03208L3.43313 12.6238L3.66189 13.328L3.06319 12.8926L2.46468 13.328L2.693 12.6238L2.09424 12.1887H2.83462L3.06319 11.4846Z" fill="#EFEFEF"/>
<path d="M5.54928 5.2688L5.77786 5.9727H6.51798L5.91922 6.40806L6.14779 7.1117L5.54928 6.67685L4.95052 7.1117L5.17909 6.40806L4.58008 5.9727H5.32046L5.54928 5.2688Z" fill="#EFEFEF"/>
<path d="M5.54928 7.75513L5.77786 8.45902H6.51798L5.91922 8.89388L6.14779 9.59803L5.54928 9.16318L4.95052 9.59803L5.17909 8.89388L4.58008 8.45902H5.32046L5.54928 7.75513Z" fill="#EFEFEF"/>
<path d="M5.54928 10.2417L5.77786 10.9459H6.51798L5.91922 11.3805L6.14779 12.0846L5.54928 11.6493L4.95052 12.0846L5.17909 11.3805L4.58008 10.9459H5.32046L5.54928 10.2417Z" fill="#EFEFEF"/>
<path d="M1.1753 12.0844L0.946539 11.3803L1.5453 10.9454H0.805367L0.788773 10.894C0.707515 11.1454 0.634111 11.3997 0.566406 11.6569L0.576856 11.6491L1.1753 12.0844Z" fill="#EFEFEF"/>
<path d="M2.46417 8.35505L3.06268 7.91976L3.66144 8.35505L3.43268 7.6509L4.03144 7.21561H3.29106L3.06249 6.51196L2.83392 7.21561H2.56107C2.5104 7.29237 2.46138 7.36957 2.41211 7.44747L2.69255 7.6509L2.46417 8.35505Z" fill="#EFEFEF"/>
<path d="M5.54946 4.19042L6.14797 4.62527L5.9194 3.92162L6.51791 3.48633H6.0904C5.72731 3.75778 5.37701 4.04506 5.04045 4.34818L4.9502 4.62527L5.54946 4.19042Z" fill="#EFEFEF"/>
<path d="M7.43701 3.38243L8.03577 2.94714L8.63428 3.38243L8.40571 2.67828L9.00422 2.24343H8.26409L8.23306 2.14868C7.98226 2.27681 7.73405 2.41013 7.49148 2.55199L7.66533 2.67822L7.43701 3.38243Z" fill="#EFEFEF"/>
<path d="M8.03555 4.02588L8.26412 4.72933H9.00425L8.40548 5.16463L8.63406 5.86878L8.03555 5.43342L7.43679 5.86878L7.66536 5.16463L7.06641 4.72933H7.80672L8.03555 4.02588Z" fill="#EFEFEF"/>
<path d="M8.03555 6.51221L8.26412 7.21566H9.00425L8.40548 7.65096L8.63406 8.35511L8.03555 7.91975L7.43679 8.35511L7.66536 7.65096L7.06641 7.21566H7.80672L8.03555 6.51221Z" fill="#EFEFEF"/>
<path d="M8.03555 8.99854L8.26412 9.70218H9.00425L8.40548 10.1373L8.63406 10.8414L8.03555 10.4061L7.43679 10.8414L7.66536 10.1373L7.06641 9.70218H7.80672L8.03555 8.99854Z" fill="#EFEFEF"/>
<path d="M8.03555 11.4846L8.26412 12.1887H9.00425L8.40548 12.6238L8.63406 13.328L8.03555 12.8926L7.43679 13.328L7.66536 12.6238L7.06641 12.1887H7.80672L8.03555 11.4846Z" fill="#EFEFEF"/>
<path d="M10.5219 2.78247L10.7504 3.48637H11.4906L10.8921 3.92173L11.1204 4.62537L10.5219 4.19052L9.92292 4.62537L10.1517 3.92173L9.55273 3.48637H10.293L10.5219 2.78247Z" fill="#EFEFEF"/>
<path d="M10.5219 5.2688L10.7504 5.9727H11.4906L10.8921 6.40806L11.1204 7.1117L10.5219 6.67685L9.92292 7.1117L10.1517 6.40806L9.55273 5.9727H10.293L10.5219 5.2688Z" fill="#EFEFEF"/>
<path d="M10.5219 7.75513L10.7504 8.45902H11.4906L10.8921 8.89388L11.1204 9.59803L10.5219 9.16318L9.92292 9.59803L10.1517 8.89388L9.55273 8.45902H10.293L10.5219 7.75513Z" fill="#EFEFEF"/>
<path d="M10.5219 10.2417L10.7504 10.9459H11.4906L10.8921 11.3805L11.1204 12.0846L10.5219 11.6493L9.92292 12.0846L10.1517 11.3805L9.55273 10.9459H10.293L10.5219 10.2417Z" fill="#EFEFEF"/>
<path d="M13.0082 1.53955L13.2368 2.24345H13.9769L13.3781 2.6783L13.6067 3.38245L13.0082 2.94709L12.4093 3.38245L12.638 2.6783L12.0391 2.24345H12.7792L13.0082 1.53955Z" fill="#EFEFEF"/>
<path d="M13.0082 4.02588L13.2368 4.72933H13.9769L13.3781 5.16463L13.6067 5.86878L13.0082 5.43342L12.4093 5.86878L12.638 5.16463L12.0391 4.72933H12.7792L13.0082 4.02588Z" fill="#EFEFEF"/>
<path d="M13.0082 6.51221L13.2368 7.21566H13.9769L13.3781 7.65096L13.6067 8.35511L13.0082 7.91975L12.4093 8.35511L12.638 7.65096L12.0391 7.21566H12.7792L13.0082 6.51221Z" fill="#EFEFEF"/>
<path d="M13.0082 8.99854L13.2368 9.70218H13.9769L13.3781 10.1373L13.6067 10.8414L13.0082 10.4061L12.4093 10.8414L12.638 10.1373L12.0391 9.70218H12.7792L13.0082 8.99854Z" fill="#EFEFEF"/>
<path d="M13.0082 11.4846L13.2368 12.1887H13.9769L13.3781 12.6238L13.6067 13.328L13.0082 12.8926L12.4093 13.328L12.638 12.6238L12.0391 12.1887H12.7792L13.0082 11.4846Z" fill="#EFEFEF"/>
</svg>
