<svg width="30" height="30" viewBox="0 0 30 30" fill="none" xmlns="http://www.w3.org/2000/svg">
<path d="M15 0C6.716 0 0 6.716 0 15C0 23.284 6.716 30 15 30C23.284 30 30 23.284 30 15C30 6.716 23.284 0 15 0ZM28.6845 12.05H17.95V1.3155C23.3055 2.469 27.531 6.6945 28.6845 12.05ZM12.05 1.3155V12.05H1.3155C2.469 6.6945 6.6945 2.469 12.05 1.3155ZM1.3155 17.95H12.05V28.6845C6.6945 27.5315 2.469 23.3055 1.3155 17.95ZM17.95 28.6845V17.95H28.6845C27.531 23.3055 23.3055 27.5315 17.95 28.6845Z" fill="#FF0000"/>
<path d="M7.3 10.5667H9.2665L8.8735 8.20675L11.2335 8.60025V6.63325L8.8735 7.02625L9.2665 4.66675H7.3L7.693 7.02625L5.3335 6.63325V8.60025L7.693 8.20675L7.3 10.5667Z" fill="#FF0000"/>
<path d="M19.0669 8.60025L21.4264 8.20675L21.0334 10.5667H22.9999L22.6069 8.20675L24.9664 8.60025V6.63325L22.6069 7.02625L22.9999 4.66675H21.0334L21.4264 7.02625L19.0669 6.63325V8.60025Z" fill="#FF0000"/>
<path d="M11.2335 22.3332L8.8255 22.7347C8.9505 21.7907 9.267 20.3667 9.267 20.3667H7.3C7.3 20.3667 7.6165 21.7912 7.7415 22.7347L5.3335 22.3332V24.3002L7.7415 23.8987C7.616 24.8427 7.3 26.2667 7.3 26.2667H9.267C9.267 26.2667 8.951 24.8427 8.8255 23.8992L11.2335 24.3007V22.3332Z" fill="#FF0000"/>
<path d="M22.9999 20.3667H21.0334L21.4264 22.7267L19.0669 22.3332V24.3002L21.4264 23.9072L21.0334 26.2667H22.9999L22.6069 23.9072L24.9664 24.3002V22.3332L22.6069 22.7267L22.9999 20.3667Z" fill="#FF0000"/>
</svg>
