<svg width="259" height="49" viewBox="0 0 259 49" fill="none" xmlns="http://www.w3.org/2000/svg">
<path d="M0 17.2805V24.5176L25.5386 37.5973L19.5535 40.704L0.141011 31.1722V38.78L19.4438 48.2764L37.2581 36.2735L0 17.2805Z" fill="#323232"/>
<path d="M38.0731 31.7194V24.4823L12.5345 11.4026L18.5353 8.29598L37.9477 17.8278V10.22L18.6293 0.723511L0.814941 12.7265L38.0731 31.7194Z" fill="#F7941D"/>
<path d="M89.5418 31.6842L87.2543 25.5768H75.9421L73.6546 31.6842H69.6279L79.859 5.50708H83.2746L93.5057 31.6842H89.5418ZM81.5982 10.626L77.3992 21.7641H85.7971L81.5982 10.626Z" fill="#323232"/>
<path d="M100.995 17.0688H113.043V20.8638H101.042V31.6842H97.3286V5.50708H114.328V9.30214H101.042L100.995 17.0688Z" fill="#323232"/>
<path d="M151.586 9.30214V31.6842H147.842V9.30214H139.679V5.50708H159.765V9.30214H151.586Z" fill="#323232"/>
<path d="M175.041 31.6842H171.327V22.9997L161.927 5.50708H166.047L173.192 18.6221L180.305 5.50708H184.567L175.041 22.929V31.6842Z" fill="#323232"/>
<path d="M199.076 5.50713C201.142 5.39494 203.169 6.17095 204.747 7.67826C205.429 8.39959 205.972 9.27056 206.343 10.2375C206.715 11.2044 206.906 12.2467 206.906 13.3002C206.906 14.3538 206.715 15.3961 206.343 16.363C205.972 17.3299 205.429 18.2009 204.747 18.9222C203.169 20.4295 201.142 21.2055 199.076 21.0933H191.022V31.6842H189.252V5.50713H199.076ZM199.076 19.2929C200.688 19.3498 202.26 18.7195 203.478 17.5278C204.023 16.9875 204.455 16.3178 204.742 15.5669C205.029 14.816 205.165 14.0026 205.139 13.1855C205.165 12.3736 205.029 11.5655 204.741 10.8204C204.454 10.0752 204.022 9.41179 203.478 8.87856C202.247 7.72344 200.676 7.13128 199.076 7.21932H191.022V19.2046L199.076 19.2929Z" fill="#323232"/>
<path d="M228.86 31.6842L219.287 19.6459H214.195V31.6842H212.424V5.50708H223C224.896 5.39761 226.76 6.08305 228.233 7.43109C228.857 8.09134 229.354 8.88848 229.694 9.77342C230.033 10.6583 230.209 11.6123 230.209 12.5765C230.209 13.5407 230.033 14.4946 229.694 15.3795C229.354 16.2645 228.857 17.0616 228.233 17.7219C226.76 19.0699 224.896 19.7553 223 19.6459H221.433L231.069 31.6842H228.86ZM223 17.8807C224.442 17.9611 225.859 17.4395 226.98 16.4157C227.454 15.9293 227.834 15.3365 228.093 14.6754C228.353 14.0143 228.487 13.2994 228.487 12.5765C228.487 11.8536 228.353 11.1387 228.093 10.4776C227.834 9.81643 227.454 9.22368 226.98 8.73729C225.848 7.73915 224.436 7.23181 223 7.30753H214.195V17.8984L223 17.8807Z" fill="#323232"/>
<path d="M255.26 9.00209C257.463 11.5832 258.693 15.0243 258.693 18.6045C258.693 22.1846 257.463 25.6258 255.26 28.2068C253.009 30.7056 249.976 32.1063 246.815 32.1063C243.655 32.1063 240.622 30.7056 238.37 28.2068C236.165 25.6279 234.932 22.1859 234.932 18.6045C234.932 15.023 236.165 11.5811 238.37 9.00209C240.609 6.48305 243.644 5.06812 246.808 5.06812C249.971 5.06812 253.006 6.48305 255.245 9.00209H255.26ZM254.054 26.9183C255.935 24.6686 256.982 21.6948 256.982 18.6045C256.982 15.5141 255.935 12.5404 254.054 10.2906C253.107 9.22267 251.982 8.37548 250.744 7.79745C249.506 7.21943 248.179 6.92191 246.839 6.92191C245.499 6.92191 244.172 7.21943 242.934 7.79745C241.696 8.37548 240.571 9.22267 239.624 10.2906C237.75 12.5443 236.708 15.5166 236.708 18.6045C236.708 21.6923 237.75 24.6646 239.624 26.9183C241.541 29.0666 244.135 30.2724 246.839 30.2724C249.543 30.2724 252.137 29.0666 254.054 26.9183Z" fill="#323232"/>
<path d="M122.428 27.8892V20.4226H118.715V31.6666H136.012V27.8892H122.428Z" fill="#323232"/>
<path d="M135.981 9.28449V5.50708H118.715V16.6804H122.428V9.28449H135.981Z" fill="#323232"/>
<path d="M134.947 16.6805H122.428V20.4226H134.947V16.6805Z" fill="#F7941D"/>
<path d="M60.7284 17.0865L55.746 15.8333C54.9186 15.7106 54.1376 15.3317 53.4898 14.7389C53.2445 14.448 53.0541 14.104 52.9302 13.7277C52.8063 13.3515 52.7515 12.9509 52.7691 12.5501C52.7721 11.9945 52.8914 11.4476 53.1174 10.9538C53.3433 10.46 53.6696 10.0332 54.0695 9.70823C54.9987 8.92938 56.1407 8.54213 57.2971 8.61383C58.5792 8.54482 59.8425 8.98178 60.8694 9.84943C61.8186 10.6733 62.443 11.8838 62.6085 13.2209V13.3974H66.3688V13.1855C66.3808 12.2367 66.2187 11.2954 65.8924 10.4206C65.5662 9.54574 65.0829 8.75634 64.473 8.10194C63.3937 6.92786 62.084 6.05702 60.65 5.56013C59.5844 5.18613 58.4759 4.9899 57.3598 4.97764C55.1551 4.86954 52.9834 5.61035 51.2023 7.07815C50.4466 7.74284 49.8412 8.59947 49.4355 9.57807C49.0298 10.5567 48.8352 11.6295 48.8678 12.709C48.8678 16.4158 50.8106 18.7693 54.6962 19.7695L59.7413 20.9522C60.6728 21.0906 61.5516 21.5185 62.2795 22.1878C62.5445 22.4797 62.7504 22.8328 62.8829 23.2228C63.0154 23.6128 63.0715 24.0305 63.0472 24.4472C63.0509 25.0222 62.9369 25.5904 62.7141 26.1078C62.4913 26.6251 62.1656 27.0777 61.7624 27.4303C60.6867 28.2258 59.4121 28.6096 58.1275 28.5247C56.72 28.5875 55.3331 28.1286 54.1792 27.2184C53.6248 26.7965 53.1594 26.2428 52.8156 25.5962C52.4718 24.9497 52.258 24.2261 52.1894 23.4764H48.2097C48.2254 23.6288 48.2254 23.7828 48.2097 23.9353C48.1938 24.1997 48.1938 24.4651 48.2097 24.7296C48.3179 25.6829 48.5837 26.6049 48.9931 27.4479C49.3958 28.2511 49.927 28.9633 50.5599 29.5484C50.7906 29.7865 51.0367 30.0049 51.2963 30.2015C53.2467 31.5965 55.5202 32.309 57.8298 32.2491C60.1506 32.3772 62.4402 31.6046 64.3163 30.0603C65.1019 29.3736 65.7336 28.4889 66.1608 27.4773C66.588 26.4657 66.7988 25.3553 66.7761 24.2354C66.7605 20.4579 64.755 18.022 60.7284 17.0865Z" fill="#323232"/>
<path d="M56.0593 37.5268C56.7339 38.3946 57.091 39.5185 57.0586 40.6714C57.0261 41.8244 56.6065 42.9205 55.8845 43.7384C55.1624 44.5563 54.1918 45.0351 53.1686 45.078C52.1454 45.1209 51.1459 44.7248 50.3719 43.9696C49.6208 43.1109 49.1997 41.9537 49.1997 40.7482C49.1997 39.5426 49.6208 38.3855 50.3719 37.5268C51.1294 36.6774 52.1547 36.2006 53.2234 36.2006C54.2922 36.2006 55.3175 36.6774 56.075 37.5268H56.0593ZM55.4013 43.2811C55.6926 42.9456 55.9217 42.548 56.075 42.1116C56.2284 41.6752 56.3029 41.2087 56.2943 40.7394C56.3029 40.2701 56.2284 39.8035 56.075 39.3671C55.9217 38.9307 55.6926 38.5331 55.4013 38.1976C54.8155 37.5507 54.028 37.1884 53.2078 37.1884C52.3875 37.1884 51.6 37.5507 51.0143 38.1976C50.7229 38.5331 50.4938 38.9307 50.3405 39.3671C50.1871 39.8035 50.1126 40.2701 50.1212 40.7394C50.1126 41.2087 50.1871 41.6752 50.3405 42.1116C50.4938 42.548 50.7229 42.9456 51.0143 43.2811C51.6 43.928 52.3875 44.2903 53.2078 44.2903C54.028 44.2903 54.8155 43.928 55.4013 43.2811Z" fill="#F7941D"/>
<path d="M62.5143 43.9871C62.8656 43.7464 63.1188 43.3597 63.2193 42.9104L64.0341 43.1575C63.8853 43.7942 63.534 44.3471 63.047 44.7109C62.5453 45.1003 61.9484 45.304 61.3392 45.2934C60.5521 45.3089 59.7916 44.9725 59.224 44.3578C58.6639 43.7004 58.3511 42.8244 58.3511 41.9131C58.3511 41.0018 58.6639 40.1258 59.224 39.4684C59.7916 38.8537 60.5521 38.5174 61.3392 38.5329C61.9432 38.5248 62.5345 38.7283 63.0313 39.1154C63.5271 39.4765 63.8891 40.0286 64.0497 40.6687L63.2037 40.9511C63.0935 40.4978 62.8435 40.1035 62.4986 39.8391C62.1601 39.5688 61.7541 39.4266 61.3392 39.4331C61.0485 39.4189 60.7585 39.4746 60.4884 39.5963C60.2183 39.718 59.9742 39.9031 59.7724 40.1391C59.3838 40.6228 59.1685 41.2519 59.1685 41.9043C59.1685 42.5567 59.3838 43.1858 59.7724 43.6694C59.9764 43.9 60.2216 44.0791 60.4917 44.1948C60.7619 44.3104 61.0507 44.36 61.3392 44.3402C61.7529 44.3526 62.161 44.23 62.5143 43.9871Z" fill="#F7941D"/>
<path d="M69.1735 43.9871C69.5248 43.7464 69.778 43.3597 69.8785 42.9104L70.6932 43.1575C70.5445 43.7942 70.1932 44.3471 69.7062 44.7109C69.2045 45.1003 68.6075 45.304 67.9984 45.2934C67.2113 45.3089 66.4507 44.9725 65.8832 44.3578C65.3231 43.7004 65.0103 42.8244 65.0103 41.9131C65.0103 41.0018 65.3231 40.1258 65.8832 39.4684C66.4507 38.8537 67.2113 38.5174 67.9984 38.5329C68.6068 38.528 69.2023 38.7311 69.7062 39.1154C70.1931 39.4831 70.5485 40.0335 70.7089 40.6687L69.8628 40.9511C69.7456 40.5159 69.503 40.1371 69.1735 39.8744C68.8282 39.6059 68.4178 39.4642 67.9984 39.4684C67.7074 39.4508 67.4164 39.5048 67.1459 39.6267C66.8753 39.7486 66.6315 39.9356 66.4316 40.1744C66.2229 40.4025 66.0591 40.6776 65.9512 40.9817C65.8432 41.2859 65.7933 41.6123 65.8049 41.9396C65.7951 42.2651 65.8442 42.5895 65.9493 42.8929C66.0543 43.1964 66.2131 43.4726 66.4159 43.7047C66.6199 43.9353 66.8651 44.1144 67.1352 44.2301C67.4054 44.3457 67.6943 44.3953 67.9827 44.3755C68.4049 44.3808 68.8191 44.2457 69.1735 43.9871Z" fill="#F7941D"/>
<path d="M77.4305 45.1699H76.5374V44.1108C76.3041 44.5061 75.9836 44.8263 75.6073 45.0399C75.2309 45.2534 74.8117 45.353 74.3909 45.3287C74.0795 45.3447 73.7687 45.2853 73.4795 45.1543C73.1903 45.0234 72.9294 44.824 72.7144 44.5697C72.2878 44.0259 72.0634 43.318 72.0877 42.5928V38.7448H72.9808V42.3986C72.9548 42.9323 73.1118 43.4568 73.4195 43.8637C73.5669 44.0379 73.7445 44.1764 73.9412 44.2705C74.1379 44.3646 74.3496 44.4124 74.5632 44.4109C74.8325 44.4253 75.1013 44.3727 75.3504 44.2568C75.5996 44.1408 75.823 43.9644 76.0047 43.7401C76.3865 43.2014 76.5765 42.5217 76.5374 41.8338V38.7448H77.4305V45.1699Z" fill="#F7941D"/>
<path d="M84.622 39.4683C84.9029 39.788 85.1229 40.1689 85.2684 40.5878C85.4138 41.0067 85.4818 41.4547 85.4681 41.9042C85.4846 42.3541 85.418 42.803 85.2723 43.2224C85.1267 43.6417 84.9052 44.0224 84.622 44.3401C84.3638 44.6457 84.0524 44.888 83.7074 45.052C83.3623 45.216 82.991 45.2981 82.6165 45.2933C82.1808 45.3209 81.7458 45.2275 81.3496 45.0213C80.9535 44.8151 80.6084 44.5024 80.3447 44.1107V47.3409H79.4673V38.6917H80.3447V39.7155C80.6084 39.3237 80.9535 39.011 81.3496 38.8048C81.7458 38.5986 82.1808 38.5052 82.6165 38.5328C82.9895 38.5288 83.3593 38.6096 83.7039 38.7703C84.0485 38.9311 84.3607 39.1685 84.622 39.4683ZM83.9953 43.7223C84.1959 43.4884 84.3532 43.2119 84.4581 42.9089C84.5631 42.6059 84.6134 42.2823 84.6063 41.9572C84.6155 41.3014 84.3961 40.6677 83.9953 40.192C83.7909 39.9609 83.546 39.7804 83.2763 39.6619C83.0065 39.5433 82.7178 39.4894 82.4285 39.5036C82.1508 39.5008 81.8755 39.5619 81.6195 39.6834C81.3636 39.8048 81.1323 39.9839 80.9401 40.2097C80.5447 40.6896 80.325 41.3201 80.325 41.9748C80.325 42.6296 80.5447 43.2601 80.9401 43.74C81.1345 43.9625 81.3661 44.1395 81.6216 44.2607C81.8771 44.3819 82.1513 44.4449 82.4285 44.446C82.7201 44.4557 83.0102 44.3962 83.2801 44.2716C83.55 44.1469 83.7936 43.9598 83.9953 43.7223Z" fill="#F7941D"/>
<path d="M92.4085 45.1698H91.5311V44.1636C91.2665 44.5542 90.9212 44.8661 90.5253 45.0722C90.1294 45.2783 89.6948 45.3724 89.2593 45.3463C88.8825 45.3514 88.5087 45.2695 88.1611 45.1056C87.8135 44.9416 87.4993 44.6992 87.2381 44.3931C86.957 44.0745 86.7379 43.6933 86.5949 43.2738C86.4519 42.8544 86.3882 42.406 86.4078 41.9572C86.391 41.5088 86.4561 41.0613 86.5989 40.6423C86.7418 40.2234 86.9593 39.8418 87.2381 39.5213C87.5023 39.221 87.8173 38.9834 88.1645 38.8227C88.5117 38.662 88.884 38.5814 89.2593 38.5858C89.6948 38.5597 90.1294 38.6538 90.5253 38.8599C90.9212 39.066 91.2665 39.3779 91.5311 39.7684V38.7447H92.4085V45.1698ZM90.8418 43.7577C91.2371 43.2778 91.4568 42.6472 91.4568 41.9925C91.4568 41.3378 91.2371 40.7073 90.8418 40.2274C90.6393 39.9922 90.3952 39.8078 90.1252 39.6861C89.8552 39.5645 89.5655 39.5083 89.275 39.5213C88.9854 39.5038 88.6958 39.5561 88.4256 39.6748C88.1554 39.7936 87.9108 39.9759 87.7082 40.2097C87.5047 40.4422 87.3445 40.718 87.2369 41.0211C87.1293 41.3242 87.0764 41.6485 87.0815 41.9749C87.0737 42.3017 87.1253 42.6268 87.2331 42.9303C87.3409 43.2338 87.5025 43.5094 87.7082 43.74C87.9108 43.9738 88.1554 44.1562 88.4256 44.2749C88.6958 44.3936 88.9854 44.446 89.275 44.4284C89.574 44.4422 89.8722 44.3849 90.1503 44.2602C90.4283 44.1355 90.68 43.9462 90.8888 43.7047L90.8418 43.7577Z" fill="#F7941D"/>
<path d="M97.8769 44.7814C97.4942 45.0979 97.0353 45.2764 96.5608 45.2934C96.3091 45.3081 96.0574 45.2657 95.8205 45.1687C95.5836 45.0716 95.3665 44.9219 95.182 44.7285C95.0019 44.512 94.8631 44.2562 94.7742 43.9769C94.6853 43.6976 94.6481 43.4007 94.665 43.1046V39.5743H93.4272V38.7447H94.665V36.6794H95.5581V38.7447H97.5949V39.5743H95.5581V43.1046C95.5406 43.4512 95.6415 43.7922 95.8401 44.0577C95.9389 44.1739 96.0583 44.2654 96.1906 44.3263C96.3229 44.3871 96.465 44.4159 96.6078 44.4108C96.9639 44.3952 97.3076 44.2599 97.5949 44.0224L97.8769 44.7814Z" fill="#F7941D"/>
<path d="M99.9765 36.3441C100.036 36.4005 100.083 36.4709 100.115 36.5501C100.148 36.6294 100.165 36.7157 100.164 36.803C100.167 36.8932 100.151 36.983 100.119 37.0655C100.086 37.148 100.038 37.2212 99.9765 37.2796C99.9189 37.3439 99.8503 37.3943 99.7749 37.4277C99.6995 37.4611 99.6188 37.4767 99.5378 37.4738C99.3799 37.4738 99.2284 37.4031 99.1168 37.2773C99.0051 37.1515 98.9424 36.9809 98.9424 36.803C98.9422 36.7174 98.9573 36.6326 98.987 36.5537C99.0166 36.4748 99.06 36.4035 99.1147 36.3441C99.1666 36.2752 99.2315 36.2203 99.3048 36.1837C99.378 36.147 99.4576 36.1294 99.5378 36.1323C99.6199 36.1316 99.7013 36.15 99.7768 36.1865C99.8523 36.2229 99.9203 36.2766 99.9765 36.3441ZM99.0991 45.1698V38.7447H99.9921V45.1698H99.0991Z" fill="#F7941D"/>
<path d="M106.776 39.486C107.322 40.1408 107.627 41.0056 107.627 41.9043C107.627 42.803 107.322 43.6678 106.776 44.3225C106.194 44.9433 105.423 45.2892 104.622 45.2892C103.82 45.2892 103.049 44.9433 102.467 44.3225C101.921 43.6678 101.617 42.803 101.617 41.9043C101.617 41.0056 101.921 40.1408 102.467 39.486C103.049 38.8653 103.82 38.5194 104.622 38.5194C105.423 38.5194 106.194 38.8653 106.776 39.486ZM106.149 43.7047C106.356 43.4737 106.519 43.1986 106.629 42.8954C106.739 42.5922 106.795 42.2672 106.792 41.9396C106.798 41.6114 106.745 41.2852 106.634 40.9814C106.524 40.6777 106.358 40.4029 106.149 40.1744C105.947 39.9384 105.703 39.7533 105.433 39.6316C105.163 39.5099 104.873 39.4543 104.582 39.4684C104.292 39.4597 104.004 39.5178 103.734 39.6392C103.465 39.7607 103.22 39.9428 103.016 40.1744C102.809 40.4038 102.646 40.6791 102.538 40.9829C102.43 41.2868 102.379 41.6125 102.389 41.9396C102.383 42.2661 102.436 42.5907 102.543 42.8939C102.651 43.1971 102.812 43.4729 103.016 43.7047C103.223 43.9331 103.468 44.1131 103.736 44.2343C104.005 44.3555 104.293 44.4155 104.582 44.4108C104.875 44.423 105.167 44.3665 105.44 44.245C105.712 44.1235 105.959 43.9395 106.165 43.7047H106.149Z" fill="#F7941D"/>
<path d="M113.874 39.2918C114.312 39.8289 114.543 40.5399 114.516 41.2687V45.1697H113.623V41.4982C113.647 40.9703 113.49 40.4523 113.184 40.0508C113.042 39.868 112.866 39.7227 112.668 39.625C112.471 39.5274 112.256 39.48 112.041 39.486C111.768 39.4723 111.495 39.5269 111.243 39.646C110.991 39.765 110.766 39.9455 110.583 40.1744C110.208 40.7169 110.019 41.3938 110.051 42.0807V45.1697H109.173V38.7446H110.051V39.8037C110.286 39.4069 110.61 39.086 110.989 38.8725C111.368 38.659 111.79 38.5602 112.213 38.5857C112.518 38.5632 112.825 38.6145 113.111 38.7363C113.398 38.8581 113.658 39.0475 113.874 39.2918Z" fill="#F7941D"/>
<path d="M121.833 45.1698H120.955V44.1636C120.691 44.5542 120.346 44.8661 119.95 45.0722C119.554 45.2783 119.119 45.3724 118.684 45.3463C118.307 45.3514 117.933 45.2695 117.585 45.1056C117.238 44.9416 116.924 44.6992 116.662 44.3931C116.381 44.0745 116.162 43.6933 116.019 43.2738C115.876 42.8544 115.812 42.406 115.832 41.9572C115.815 41.5088 115.88 41.0613 116.023 40.6423C116.166 40.2234 116.384 39.8418 116.662 39.5213C116.927 39.221 117.242 38.9834 117.589 38.8227C117.936 38.662 118.308 38.5814 118.684 38.5858C119.119 38.5597 119.554 38.6538 119.95 38.8599C120.346 39.066 120.691 39.3779 120.955 39.7684V38.7447H121.833V45.1698ZM120.266 43.7577C120.661 43.2778 120.881 42.6472 120.881 41.9925C120.881 41.3378 120.661 40.7073 120.266 40.2274C119.867 39.779 119.326 39.5272 118.762 39.5272C118.198 39.5272 117.657 39.779 117.258 40.2274C117.054 40.4598 116.894 40.7357 116.787 41.0388C116.679 41.3419 116.626 41.6661 116.631 41.9925C116.623 42.3193 116.675 42.6444 116.783 42.948C116.891 43.2515 117.052 43.527 117.258 43.7577C117.461 43.9905 117.706 44.1723 117.976 44.2909C118.246 44.4096 118.535 44.4625 118.825 44.4461C119.388 44.4305 119.924 44.164 120.313 43.7047L120.266 43.7577Z" fill="#F7941D"/>
<path d="M123.87 45.1698V35.7792H124.747V45.1698H123.87Z" fill="#F7941D"/>
<path d="M134.226 36.856C134.738 37.2869 135.089 37.9156 135.213 38.6211L134.289 38.8506C134.256 38.602 134.179 38.3632 134.063 38.1481C133.948 37.933 133.795 37.7459 133.615 37.5974C133.227 37.2706 132.752 37.1024 132.268 37.1208C131.812 37.0953 131.363 37.2516 130.999 37.5621C130.841 37.6942 130.714 37.8678 130.63 38.0678C130.545 38.2678 130.505 38.488 130.513 38.7094C130.505 38.8692 130.527 39.0292 130.578 39.1785C130.629 39.3278 130.709 39.4628 130.811 39.5743C131.063 39.8067 131.366 39.959 131.688 40.0156L133.38 40.4392C134.681 40.757 135.339 41.516 135.339 42.7163C135.349 43.0801 135.282 43.4415 135.143 43.7701C135.004 44.0988 134.797 44.385 134.54 44.605C133.934 45.1089 133.192 45.3587 132.44 45.311C131.681 45.3392 130.934 45.0917 130.309 44.605C130.028 44.3886 129.791 44.1063 129.615 43.7772C129.439 43.4482 129.329 43.0803 129.291 42.6986L130.262 42.4691C130.29 42.752 130.37 43.0253 130.497 43.2715C130.624 43.5176 130.795 43.7313 130.999 43.8989C131.459 44.2529 132.009 44.4266 132.566 44.3931C133.056 44.4269 133.543 44.2713 133.944 43.9519C134.106 43.814 134.235 43.6348 134.322 43.4291C134.41 43.2233 134.452 42.9971 134.446 42.7692C134.459 42.6036 134.439 42.4368 134.388 42.281C134.336 42.1252 134.254 41.9844 134.148 41.869C133.874 41.6148 133.544 41.4499 133.192 41.3924L131.438 40.9688C130.184 40.651 129.573 39.9097 129.573 38.7271C129.572 38.3879 129.639 38.0528 129.769 37.7471C129.899 37.4413 130.089 37.1729 130.325 36.9619C130.907 36.524 131.591 36.2903 132.291 36.2903C132.991 36.2903 133.676 36.524 134.258 36.9619L134.226 36.856Z" fill="#F7941D"/>
<path d="M142.405 45.1698H141.527V44.1636C141.263 44.5542 140.917 44.8661 140.521 45.0722C140.125 45.2783 139.691 45.3724 139.255 45.3463C138.879 45.3514 138.505 45.2695 138.157 45.1056C137.81 44.9416 137.495 44.6992 137.234 44.3931C136.953 44.0745 136.734 43.6933 136.591 43.2738C136.448 42.8544 136.384 42.406 136.404 41.9572C136.387 41.5088 136.452 41.0613 136.595 40.6423C136.738 40.2234 136.955 39.8418 137.234 39.5213C137.498 39.221 137.813 38.9834 138.161 38.8227C138.508 38.662 138.88 38.5814 139.255 38.5858C139.691 38.5597 140.125 38.6538 140.521 38.8599C140.917 39.066 141.263 39.3779 141.527 39.7684V38.7447H142.405V45.1698ZM140.838 43.7577C141.233 43.2778 141.453 42.6472 141.453 41.9925C141.453 41.3378 141.233 40.7073 140.838 40.2274C140.438 39.779 139.898 39.5272 139.334 39.5272C138.77 39.5272 138.229 39.779 137.83 40.2274C137.626 40.4598 137.466 40.7357 137.358 41.0388C137.251 41.3419 137.198 41.6661 137.203 41.9925C137.195 42.3193 137.247 42.6444 137.355 42.948C137.462 43.2515 137.624 43.527 137.83 43.7577C138.033 43.9905 138.278 44.1723 138.548 44.2909C138.818 44.4096 139.107 44.4625 139.396 44.4461C139.96 44.4305 140.495 44.164 140.885 43.7047L140.838 43.7577Z" fill="#F7941D"/>
<path d="M145.523 39.5213V45.1698H144.645V39.5213H143.658V38.6917H144.645V37.7385C144.634 37.4388 144.675 37.1396 144.766 36.8579C144.858 36.5761 144.998 36.3176 145.178 36.0969C145.366 35.8922 145.59 35.7333 145.836 35.6301C146.081 35.5269 146.342 35.4815 146.604 35.4968C146.929 35.489 147.251 35.5676 147.544 35.7262L147.309 36.5382C147.104 36.4474 146.886 36.3995 146.666 36.397C146.514 36.3895 146.362 36.417 146.219 36.4777C146.076 36.5383 145.946 36.631 145.836 36.75C145.62 37.02 145.507 37.3753 145.523 37.7385V38.6917H147.607V39.5213H145.523Z" fill="#F7941D"/>
<path d="M153.78 42.0984H148.876C148.87 42.428 148.926 42.7554 149.039 43.0593C149.153 43.3633 149.321 43.6372 149.534 43.8635C149.777 44.1184 150.07 44.3047 150.389 44.4071C150.709 44.5095 151.045 44.5252 151.371 44.4529C151.696 44.3805 152.002 44.2222 152.263 43.9909C152.524 43.7595 152.732 43.4618 152.871 43.1222L153.655 43.334C153.456 43.9524 153.089 44.484 152.605 44.852C152.101 45.2162 151.511 45.4008 150.913 45.3816C150.524 45.3818 150.139 45.294 149.781 45.1233C149.423 44.9526 149.1 44.7025 148.829 44.388C148.559 44.0735 148.347 43.7008 148.207 43.2923C148.067 42.8839 148.002 42.4478 148.014 42.0102C148.001 41.5657 148.069 41.1229 148.213 40.7087C148.356 40.2945 148.573 39.9175 148.85 39.6006C149.127 39.2837 149.458 39.0334 149.824 38.8651C150.189 38.6967 150.581 38.6137 150.975 38.6211C151.338 38.6102 151.699 38.6829 152.036 38.8346C152.372 38.9864 152.678 39.214 152.934 39.5036C153.475 40.126 153.779 40.9623 153.78 41.8336V42.0984ZM149.597 39.8743C149.206 40.232 148.948 40.7424 148.876 41.3041H152.856C152.798 40.7569 152.571 40.2504 152.213 39.8743C151.858 39.5385 151.408 39.357 150.944 39.3624C150.456 39.3542 149.981 39.5349 149.597 39.8743Z" fill="#F7941D"/>
<path d="M158.7 44.7814C158.313 45.1013 157.848 45.28 157.368 45.2934C157.116 45.3061 156.865 45.2628 156.628 45.1659C156.392 45.0689 156.175 44.9203 155.989 44.7285C155.815 44.5083 155.681 44.2515 155.595 43.9728C155.509 43.6942 155.472 43.3991 155.488 43.1046V39.5743H154.25V38.7447H155.488V36.6794H156.381V38.7447H158.48V39.5743H156.443V43.1046C156.426 43.4512 156.527 43.7923 156.726 44.0577C156.823 44.1758 156.942 44.2685 157.075 44.3295C157.207 44.3905 157.35 44.4182 157.493 44.4108C157.845 44.3971 158.184 44.2615 158.465 44.0224L158.7 44.7814Z" fill="#F7941D"/>
<path d="M161.614 47.341H160.627L161.567 45.0286L158.997 38.6918H160.047L162.084 43.8283L164.183 38.6918H165.155L161.614 47.341Z" fill="#F7941D"/>
<path d="M175.197 45.1698L174.32 42.9634H170.231L169.353 45.1698H168.366L171.844 36.4324H172.691L176.169 45.1698H175.197ZM172.283 37.7033L170.591 42.0279H173.96L172.283 37.7033Z" fill="#F7941D"/>
<path d="M182.671 45.1698H181.794V44.1636C181.53 44.5553 181.185 44.8681 180.789 45.0743C180.393 45.2805 179.958 45.3739 179.522 45.3463C179.147 45.3532 178.775 45.2721 178.43 45.1079C178.085 44.9438 177.774 44.7003 177.517 44.3931C177.233 44.0753 177.012 43.6947 176.866 43.2754C176.721 42.856 176.654 42.4071 176.67 41.9572C176.657 41.5076 176.725 41.0597 176.87 40.6408C177.016 40.2219 177.236 39.841 177.517 39.5213C177.777 39.2198 178.089 38.9813 178.434 38.8204C178.778 38.6596 179.149 38.5797 179.522 38.5858C179.958 38.5582 180.393 38.6516 180.789 38.8578C181.185 39.064 181.53 39.3767 181.794 39.7684V35.7792H182.671V45.1698ZM181.104 43.7576C181.5 43.2777 181.719 42.6472 181.719 41.9925C181.719 41.3378 181.5 40.7072 181.104 40.2273C180.705 39.7789 180.164 39.5272 179.6 39.5272C179.036 39.5272 178.496 39.7789 178.096 40.2273C177.695 40.703 177.476 41.3367 177.485 41.9925C177.478 42.3177 177.528 42.6412 177.633 42.9442C177.738 43.2472 177.896 43.5237 178.096 43.7576C178.299 43.9905 178.544 44.1723 178.814 44.2909C179.084 44.4096 179.374 44.4624 179.663 44.446C179.942 44.4403 180.218 44.3718 180.474 44.2445C180.729 44.1172 180.96 43.9336 181.151 43.7047L181.104 43.7576Z" fill="#F7941D"/>
<path d="M187.387 45.1699H186.432L183.909 38.7448H184.865L186.917 44.0402L188.954 38.7448H189.926L187.387 45.1699Z" fill="#F7941D"/>
<path d="M192.119 36.3441C192.174 36.4036 192.217 36.4749 192.247 36.5537C192.277 36.6326 192.292 36.7174 192.292 36.803C192.293 36.8915 192.278 36.9793 192.249 37.0613C192.219 37.1432 192.175 37.2175 192.119 37.2796C192.061 37.3431 191.992 37.3929 191.917 37.4263C191.842 37.4596 191.761 37.4757 191.68 37.4738C191.518 37.474 191.361 37.4046 191.242 37.2796C191.186 37.2175 191.142 37.1432 191.112 37.0613C191.083 36.9793 191.068 36.8915 191.069 36.803C191.069 36.7174 191.084 36.6326 191.114 36.5537C191.144 36.4749 191.187 36.4036 191.242 36.3441C191.299 36.2779 191.367 36.2253 191.442 36.1893C191.518 36.1534 191.599 36.1349 191.68 36.1349C191.762 36.1349 191.843 36.1534 191.919 36.1893C191.994 36.2253 192.062 36.2779 192.119 36.3441ZM191.242 45.1698V38.7447H192.135V45.1698H191.242Z" fill="#F7941D"/>
<path d="M194.657 43.1575C194.671 43.3533 194.725 43.5429 194.815 43.7114C194.904 43.8798 195.027 44.0225 195.174 44.1283C195.524 44.3645 195.927 44.481 196.334 44.4637C196.688 44.4881 197.04 44.3829 197.337 44.1636C197.438 44.0741 197.52 43.9587 197.575 43.8267C197.629 43.6947 197.655 43.55 197.65 43.4046C197.65 42.9457 197.337 42.6456 196.71 42.4867L195.394 42.1513C194.407 41.9219 193.905 41.3747 193.905 40.5098C193.902 40.2387 193.953 39.9703 194.057 39.7254C194.16 39.4805 194.312 39.2657 194.501 39.0976C194.955 38.7262 195.507 38.5395 196.067 38.5681C196.621 38.5395 197.169 38.7061 197.634 39.0447C198.032 39.3496 198.308 39.8188 198.402 40.3509L197.556 40.5627C197.502 40.2134 197.327 39.9025 197.07 39.6978C196.77 39.471 196.413 39.3595 196.052 39.3801C195.724 39.3556 195.399 39.455 195.127 39.6625C195.022 39.7538 194.938 39.8717 194.881 40.0066C194.823 40.1415 194.795 40.2897 194.798 40.4392C194.794 40.5443 194.81 40.6494 194.845 40.7469C194.88 40.8445 194.934 40.9322 195.002 41.004C195.201 41.1568 195.425 41.2647 195.66 41.3217L197.039 41.6571C198.026 41.9042 198.512 42.4691 198.512 43.4222C198.517 43.7022 198.462 43.9795 198.353 44.2312C198.244 44.4829 198.084 44.7017 197.885 44.8697C197.392 45.2455 196.803 45.4313 196.208 45.3992C195.608 45.4282 195.014 45.2562 194.501 44.905C194.282 44.7537 194.098 44.5475 193.962 44.3025C193.826 44.0575 193.742 43.7804 193.717 43.4929L194.657 43.1575Z" fill="#F7941D"/>
<path d="M204.794 39.486C205.34 40.1408 205.645 41.0056 205.645 41.9043C205.645 42.803 205.34 43.6678 204.794 44.3225C204.212 44.9433 203.441 45.2892 202.64 45.2892C201.838 45.2892 201.067 44.9433 200.485 44.3225C199.939 43.6678 199.635 42.803 199.635 41.9043C199.635 41.0056 199.939 40.1408 200.485 39.486C201.067 38.8653 201.838 38.5194 202.64 38.5194C203.441 38.5194 204.212 38.8653 204.794 39.486ZM204.167 43.7047C204.372 43.4729 204.532 43.1971 204.64 42.8939C204.748 42.5907 204.8 42.2661 204.794 41.9396C204.804 41.6125 204.753 41.2868 204.645 40.9829C204.537 40.6791 204.375 40.4038 204.167 40.1744C203.966 39.9384 203.721 39.7533 203.451 39.6316C203.181 39.5099 202.891 39.4543 202.601 39.4684C202.311 39.4635 202.023 39.5248 201.755 39.6486C201.486 39.7724 201.243 39.9561 201.04 40.1887C200.836 40.4212 200.677 40.6979 200.571 41.0018C200.465 41.3058 200.414 41.6308 200.423 41.9572C200.412 42.2851 200.461 42.6121 200.566 42.9181C200.671 43.2242 200.83 43.5029 201.034 43.7374C201.238 43.9719 201.482 44.1572 201.751 44.2821C202.02 44.4069 202.309 44.4688 202.601 44.4638C202.894 44.4667 203.185 44.4007 203.455 44.27C203.725 44.1393 203.967 43.9468 204.167 43.7047Z" fill="#F7941D"/>
<path d="M210.764 38.6741V39.6273H210.419C210.099 39.6085 209.78 39.6737 209.486 39.8177C209.192 39.9616 208.933 40.1805 208.727 40.4569C208.303 41.09 208.092 41.8717 208.131 42.6633V45.1698H207.238V38.7447H208.131V40.3157C208.333 39.8237 208.655 39.4074 209.061 39.1163C209.467 38.8252 209.938 38.6717 210.419 38.6741C210.533 38.6588 210.649 38.6588 210.764 38.6741Z" fill="#F7941D"/>
<path d="M213.741 47.341H212.753L213.694 45.0286L211.14 38.6918H212.127L214.179 43.8283L216.263 38.6918H217.25L213.741 47.341Z" fill="#F7941D"/>
<path d="M228.986 40.3156C228.995 40.4625 228.995 40.61 228.986 40.7569C229.002 41.3503 228.913 41.9414 228.725 42.4959C228.537 43.0504 228.252 43.5573 227.889 43.9871C227.529 44.415 227.094 44.7526 226.611 44.9777C226.127 45.2028 225.607 45.3104 225.084 45.2933C224.533 45.332 223.981 45.2431 223.462 45.0322C222.943 44.8213 222.467 44.4928 222.065 44.0669C221.663 43.6411 221.342 43.1269 221.123 42.5561C220.904 41.9853 220.791 41.37 220.791 40.748C220.791 40.1261 220.904 39.5108 221.123 38.94C221.342 38.3692 221.663 37.855 222.065 37.4292C222.467 37.0033 222.943 36.6748 223.462 36.4639C223.981 36.253 224.533 36.1641 225.084 36.2028C225.877 36.1874 226.658 36.4196 227.341 36.8736C227.967 37.2759 228.461 37.8948 228.751 38.6387L227.92 38.9741C227.674 38.3842 227.275 37.8919 226.776 37.562C226.259 37.2393 225.676 37.0749 225.084 37.0854C224.673 37.0738 224.264 37.1589 223.884 37.3352C223.504 37.5114 223.16 37.775 222.875 38.1092C222.584 38.4447 222.355 38.8423 222.201 39.2787C222.048 39.7151 221.974 40.1817 221.982 40.651C221.976 41.1215 222.053 41.5887 222.209 42.0252C222.365 42.4618 222.597 42.8587 222.891 43.1928C223.179 43.5337 223.527 43.8026 223.913 43.982C224.299 44.1614 224.714 44.2474 225.131 44.2342C225.885 44.2587 226.617 43.948 227.168 43.3693C227.711 42.7863 228.05 42.0035 228.124 41.1628H224.693V40.2273L228.986 40.3156Z" fill="#F7941D"/>
<path d="M234.203 38.6742L234.125 39.6273H233.796C233.476 39.6072 233.156 39.6718 232.862 39.8158C232.568 39.9599 232.308 40.1795 232.103 40.457C231.675 41.0883 231.459 41.8698 231.492 42.6634V45.1699H230.552V38.7448H231.445V40.3157C231.648 39.821 231.973 39.4028 232.382 39.1115C232.79 38.8203 233.265 38.6684 233.748 38.6742C233.899 38.6493 234.052 38.6493 234.203 38.6742Z" fill="#F7941D"/>
<path d="M239.953 39.486C240.499 40.1408 240.803 41.0056 240.803 41.9043C240.803 42.803 240.499 43.6678 239.953 44.3225C239.371 44.9433 238.6 45.2892 237.798 45.2892C236.997 45.2892 236.226 44.9433 235.644 44.3225C235.098 43.6678 234.793 42.803 234.793 41.9043C234.793 41.0056 235.098 40.1408 235.644 39.486C236.226 38.8653 236.997 38.5194 237.798 38.5194C238.6 38.5194 239.371 38.8653 239.953 39.486ZM239.342 43.7047C239.748 43.2319 239.973 42.5979 239.968 41.9396C239.974 41.6131 239.922 41.2885 239.814 40.9853C239.707 40.6821 239.546 40.4063 239.342 40.1744C239.035 39.8312 238.645 39.5984 238.221 39.5057C237.797 39.413 237.358 39.4645 236.959 39.6538C236.561 39.843 236.222 40.1614 235.985 40.5685C235.748 40.9755 235.624 41.4528 235.628 41.9396C235.624 42.4264 235.748 42.9037 235.985 43.3107C236.222 43.7178 236.561 44.0362 236.959 44.2254C237.358 44.4147 237.797 44.4662 238.221 44.3735C238.645 44.2808 239.035 44.048 239.342 43.7047Z" fill="#F7941D"/>
<path d="M247.489 45.1699H246.596V44.1108C246.36 44.5076 246.037 44.8285 245.658 45.042C245.279 45.2555 244.857 45.3543 244.434 45.3287C244.125 45.3445 243.816 45.2849 243.53 45.1538C243.243 45.0228 242.985 44.8236 242.773 44.5697C242.335 44.0326 242.104 43.3216 242.131 42.5928V38.7448H243.086V42.3986C243.066 42.9313 243.223 43.4533 243.525 43.8637C243.672 44.0379 243.85 44.1764 244.047 44.2705C244.243 44.3646 244.455 44.4124 244.669 44.4109C244.94 44.4232 245.211 44.3696 245.462 44.2539C245.713 44.1382 245.94 43.963 246.126 43.7401C246.501 43.1975 246.69 42.5207 246.659 41.8338V38.7448H247.552L247.489 45.1699Z" fill="#F7941D"/>
<path d="M254.681 39.4683C254.956 39.7913 255.172 40.1732 255.315 40.5916C255.457 41.01 255.524 41.4563 255.511 41.9042C255.527 42.3525 255.461 42.7997 255.319 43.2185C255.176 43.6374 254.959 44.019 254.681 44.3401C254.419 44.6462 254.105 44.8886 253.758 45.0526C253.41 45.2165 253.036 45.2985 252.659 45.2933C252.224 45.3194 251.789 45.2253 251.393 45.0192C250.998 44.8131 250.652 44.5012 250.388 44.1107V47.3409H249.51V38.6917H250.388V39.7155C250.652 39.3249 250.998 39.013 251.393 38.8069C251.789 38.6008 252.224 38.5067 252.659 38.5328C253.035 38.5285 253.407 38.609 253.754 38.7697C254.101 38.9304 254.416 39.168 254.681 39.4683ZM254.038 43.7223C254.242 43.4899 254.402 43.214 254.51 42.9109C254.617 42.6078 254.67 42.2836 254.665 41.9572C254.668 41.2993 254.443 40.6659 254.038 40.192C253.639 39.7436 253.098 39.4919 252.534 39.4919C251.97 39.4919 251.429 39.7436 251.03 40.192C250.711 40.5406 250.491 40.9889 250.4 41.4793C250.309 41.9697 250.351 42.4796 250.519 42.9431C250.688 43.4067 250.976 43.8027 251.346 44.08C251.717 44.3573 252.152 44.5033 252.597 44.499C252.874 44.487 253.145 44.412 253.396 44.2786C253.646 44.1451 253.87 43.9559 254.054 43.7223H254.038Z" fill="#F7941D"/>
</svg>
