<svg width="1197" height="214" viewBox="0 0 1197 214" fill="none" xmlns="http://www.w3.org/2000/svg">
<path d="M0 74.3057V106.784L118.089 165.484L90.4142 179.426L0.652025 136.649V170.791L89.907 213.409L172.28 159.542L0 74.3057Z" fill="#EDEDED"/>
<path d="M176.045 139.104V106.625L57.9562 47.9258L85.7035 33.9838L175.466 76.7606V42.6184L86.1382 0L3.76562 53.8671L176.045 139.104Z" fill="#EDEDED"/>
<path d="M414.032 138.947L403.454 111.538H351.147L340.57 138.947H321.951L369.259 21.4688H385.053L432.361 138.947H414.032ZM377.301 44.4415L357.885 94.427H396.717L377.301 44.4415Z" fill="#EDEDED"/>
<path d="M466.992 73.3554H522.704V90.3869H467.209V138.947H450.039V21.4688H528.644V38.5003H467.209L466.992 73.3554Z" fill="#EDEDED"/>
<path d="M700.923 38.5003V138.947H683.608V38.5003H645.863V21.4688H738.741V38.5003H700.923Z" fill="#EDEDED"/>
<path d="M809.375 138.947H792.205V99.9721L748.736 21.4688H767.79L800.826 80.3265L833.717 21.4688H853.423L809.375 99.6552V138.947Z" fill="#EDEDED"/>
<path d="M920.514 21.4678C930.07 20.9643 939.443 24.4469 946.74 31.2114C949.892 34.4486 952.403 38.3574 954.12 42.6967C955.837 47.036 956.723 51.7138 956.723 56.4418C956.723 61.1698 955.837 65.8477 954.12 70.187C952.403 74.5263 949.892 78.435 946.74 81.6722C939.443 88.4367 930.07 91.9192 920.514 91.4158H883.276V138.946H875.09V21.4678H920.514ZM920.514 83.3357C927.97 83.5912 935.24 80.7624 940.872 75.4141C943.391 72.9896 945.387 69.9841 946.715 66.6142C948.043 63.2443 948.67 59.594 948.551 55.9269C948.669 52.2831 948.04 48.6567 946.711 45.3126C945.383 41.9685 943.388 38.9912 940.872 36.5981C935.179 31.4142 927.914 28.7567 920.514 29.1518H883.276V82.9396L920.514 83.3357Z" fill="#EDEDED"/>
<path d="M1058.23 138.945L1013.97 84.9191H990.423V138.945H982.236V21.467H1031.14C1039.9 20.9757 1048.52 24.0518 1055.34 30.1016C1058.22 33.0646 1060.52 36.6421 1062.09 40.6135C1063.66 44.5849 1064.47 48.8661 1064.47 53.1931C1064.47 57.5201 1063.66 61.8012 1062.09 65.7726C1060.52 69.744 1058.22 73.3215 1055.34 76.2846C1048.52 82.3344 1039.9 85.4104 1031.14 84.9191H1023.89L1068.45 138.945H1058.23ZM1031.14 76.9975C1037.8 77.3584 1044.36 75.0173 1049.54 70.4227C1051.73 68.2399 1053.49 65.5797 1054.69 62.6127C1055.89 59.6457 1056.51 56.4373 1056.51 53.1931C1056.51 49.9489 1055.89 46.7405 1054.69 43.7735C1053.49 40.8065 1051.73 38.1463 1049.54 35.9635C1044.31 31.4841 1037.78 29.2072 1031.14 29.547H990.423V77.0768L1031.14 76.9975Z" fill="#EDEDED"/>
<path d="M1180.31 37.1539C1190.49 48.7373 1196.18 64.1806 1196.18 80.2476C1196.18 96.3145 1190.49 111.758 1180.31 123.341C1169.9 134.555 1155.87 140.841 1141.26 140.841C1126.64 140.841 1112.62 134.555 1102.21 123.341C1092.01 111.767 1086.31 96.3204 1086.31 80.2476C1086.31 64.1747 1092.01 48.7279 1102.21 37.1539C1112.56 25.849 1126.59 19.499 1141.22 19.499C1155.85 19.499 1169.88 25.849 1180.23 37.1539H1180.31ZM1174.73 117.558C1183.42 107.462 1188.27 94.1164 1188.27 80.2476C1188.27 66.3787 1183.42 53.0331 1174.73 42.9367C1170.35 38.1439 1165.15 34.3418 1159.42 31.7478C1153.7 29.1537 1147.56 27.8185 1141.37 27.8185C1135.17 27.8185 1129.03 29.1537 1123.31 31.7478C1117.59 34.3418 1112.38 38.1439 1108 42.9367C1099.34 53.0509 1094.52 66.3898 1094.52 80.2476C1094.52 94.1053 1099.34 107.444 1108 117.558C1116.87 127.199 1128.86 132.611 1141.37 132.611C1153.87 132.611 1165.86 127.199 1174.73 117.558Z" fill="#EDEDED"/>
<path d="M566.102 121.914V88.4053H548.932V138.866H628.913V121.914H566.102Z" fill="#EDEDED"/>
<path d="M628.769 38.421V21.4688H548.932V71.6126H566.102V38.421H628.769Z" fill="#EDEDED"/>
<path d="M623.985 71.6123H566.1V88.4062H623.985V71.6123Z" fill="#EDEDED"/>
<path d="M280.802 73.4337L257.764 67.8094C253.938 67.2587 250.327 65.5584 247.331 62.8979C246.197 61.5924 245.317 60.0486 244.744 58.3602C244.171 56.6718 243.918 54.8738 243.999 53.0751C244.013 50.5819 244.564 48.1274 245.609 45.9113C246.654 43.6951 248.163 41.7799 250.012 40.3214C254.308 36.8261 259.589 35.0881 264.936 35.4099C270.865 35.1002 276.706 37.0612 281.454 40.955C285.843 44.6524 288.731 50.0851 289.496 56.0854V56.8775H306.883V55.9269C306.939 51.6689 306.189 47.4442 304.68 43.5182C303.172 39.5921 300.937 36.0495 298.117 33.1127C293.127 27.8436 287.07 23.9354 280.44 21.7055C275.512 20.0271 270.387 19.1464 265.226 19.0914C255.032 18.6063 244.99 21.9309 236.754 28.5181C233.26 31.5011 230.461 35.3455 228.585 39.7372C226.709 44.129 225.809 48.9437 225.96 53.7881C225.96 70.4235 234.943 80.9857 252.91 85.4746L276.238 90.7821C280.545 91.4034 284.609 93.3234 287.974 96.3272C289.2 97.6373 290.152 99.2219 290.765 100.972C291.377 102.722 291.636 104.597 291.524 106.467C291.541 109.047 291.014 111.598 289.984 113.919C288.954 116.241 287.448 118.272 285.584 119.854C280.61 123.425 274.716 125.147 268.776 124.766C262.268 125.048 255.855 122.989 250.519 118.904C247.956 117.01 245.804 114.525 244.214 111.624C242.624 108.722 241.636 105.475 241.318 102.11H222.917C222.989 102.794 222.989 103.485 222.917 104.17C222.843 105.357 222.843 106.548 222.917 107.734C223.417 112.012 224.646 116.15 226.539 119.934C228.401 123.538 230.857 126.734 233.784 129.36C234.85 130.429 235.989 131.409 237.189 132.291C246.207 138.552 256.72 141.749 267.399 141.48C278.131 142.055 288.717 138.588 297.393 131.658C301.025 128.576 303.946 124.605 305.922 120.065C307.897 115.525 308.871 110.543 308.767 105.516C308.694 88.564 299.421 77.6322 280.802 73.4337Z" fill="#EDEDED"/>
<path d="M259.213 165.166C262.332 169.06 263.983 174.104 263.833 179.278C263.683 184.453 261.743 189.372 258.404 193.042C255.065 196.713 250.577 198.862 245.846 199.054C241.115 199.247 236.493 197.469 232.914 194.08C229.441 190.226 227.494 185.033 227.494 179.623C227.494 174.212 229.441 169.019 232.914 165.166C236.417 161.354 241.158 159.214 246.1 159.214C251.042 159.214 255.782 161.354 259.285 165.166H259.213ZM256.17 190.99C257.517 189.484 258.576 187.7 259.285 185.741C259.994 183.783 260.339 181.689 260.299 179.583C260.339 177.477 259.994 175.383 259.285 173.425C258.576 171.466 257.517 169.682 256.17 168.176C253.461 165.273 249.82 163.647 246.027 163.647C242.235 163.647 238.593 165.273 235.885 168.176C234.537 169.682 233.478 171.466 232.769 173.425C232.06 175.383 231.715 177.477 231.755 179.583C231.715 181.689 232.06 183.783 232.769 185.741C233.478 187.7 234.537 189.484 235.885 190.99C238.593 193.893 242.235 195.519 246.027 195.519C249.82 195.519 253.461 193.893 256.17 190.99Z" fill="#EDEDED"/>
<path d="M289.065 194.16C290.689 193.079 291.86 191.344 292.325 189.328L296.092 190.437C295.405 193.294 293.78 195.775 291.528 197.408C289.208 199.156 286.448 200.069 283.631 200.022C279.992 200.091 276.475 198.582 273.851 195.823C271.261 192.873 269.814 188.942 269.814 184.852C269.814 180.762 271.261 176.831 273.851 173.88C276.475 171.122 279.992 169.612 283.631 169.682C286.424 169.646 289.158 170.559 291.456 172.296C293.748 173.917 295.422 176.395 296.165 179.267L292.253 180.535C291.743 178.5 290.587 176.731 288.992 175.544C287.427 174.331 285.55 173.693 283.631 173.722C282.287 173.659 280.946 173.908 279.697 174.455C278.448 175.001 277.32 175.831 276.387 176.891C274.59 179.061 273.594 181.884 273.594 184.812C273.594 187.74 274.59 190.563 276.387 192.734C277.33 193.769 278.464 194.573 279.713 195.092C280.962 195.611 282.298 195.833 283.631 195.744C285.544 195.8 287.431 195.25 289.065 194.16Z" fill="#EDEDED"/>
<path d="M319.852 194.16C321.477 193.079 322.647 191.344 323.112 189.328L326.879 190.437C326.192 193.294 324.567 195.775 322.315 197.408C319.996 199.156 317.235 200.069 314.418 200.022C310.779 200.091 307.262 198.582 304.638 195.823C302.048 192.873 300.602 188.942 300.602 184.852C300.602 180.762 302.048 176.831 304.638 173.88C307.262 171.122 310.779 169.612 314.418 169.682C317.232 169.66 319.985 170.572 322.315 172.296C324.567 173.946 326.21 176.416 326.952 179.267L323.04 180.535C322.497 178.581 321.376 176.881 319.852 175.702C318.256 174.498 316.358 173.861 314.418 173.88C313.073 173.801 311.728 174.044 310.476 174.591C309.225 175.138 308.098 175.977 307.174 177.049C306.209 178.073 305.452 179.307 304.952 180.672C304.453 182.037 304.222 183.502 304.276 184.971C304.231 186.432 304.458 187.887 304.944 189.249C305.429 190.611 306.163 191.851 307.101 192.892C308.044 193.927 309.178 194.731 310.427 195.25C311.676 195.769 313.012 195.991 314.346 195.903C316.298 195.926 318.213 195.32 319.852 194.16Z" fill="#EDEDED"/>
<path d="M358.033 199.469H353.904V194.715C352.825 196.49 351.343 197.927 349.603 198.885C347.863 199.844 345.924 200.29 343.978 200.181C342.539 200.253 341.101 199.986 339.764 199.399C338.427 198.811 337.22 197.916 336.226 196.775C334.254 194.335 333.216 191.158 333.329 187.903V170.634H337.458V187.031C337.338 189.427 338.064 191.781 339.487 193.606C340.168 194.389 340.989 195.01 341.899 195.432C342.808 195.854 343.787 196.069 344.775 196.062C346.02 196.127 347.263 195.891 348.415 195.371C349.567 194.85 350.6 194.059 351.44 193.052C353.206 190.634 354.084 187.584 353.904 184.497V170.634H358.033V199.469Z" fill="#EDEDED"/>
<path d="M391.284 173.881C392.583 175.315 393.6 177.025 394.273 178.905C394.946 180.785 395.26 182.795 395.197 184.813C395.273 186.832 394.965 188.846 394.291 190.728C393.618 192.61 392.594 194.318 391.284 195.745C390.09 197.116 388.651 198.203 387.055 198.939C385.46 199.675 383.743 200.044 382.011 200.022C379.996 200.146 377.985 199.727 376.153 198.802C374.321 197.876 372.726 196.473 371.506 194.715V209.211H367.449V170.395H371.506V174.99C372.726 173.232 374.321 171.828 376.153 170.903C377.985 169.978 379.996 169.558 382.011 169.682C383.736 169.664 385.446 170.027 387.039 170.748C388.632 171.47 390.076 172.535 391.284 173.881ZM388.386 192.972C389.314 191.922 390.042 190.681 390.527 189.321C391.012 187.961 391.245 186.51 391.212 185.05C391.254 182.107 390.24 179.263 388.386 177.129C387.441 176.092 386.309 175.281 385.062 174.749C383.814 174.217 382.479 173.976 381.142 174.039C379.858 174.026 378.585 174.301 377.401 174.846C376.217 175.391 375.148 176.195 374.259 177.208C372.431 179.362 371.415 182.191 371.415 185.13C371.415 188.068 372.431 190.898 374.259 193.051C375.158 194.05 376.229 194.844 377.411 195.388C378.592 195.932 379.86 196.215 381.142 196.22C382.49 196.263 383.831 195.996 385.079 195.437C386.327 194.877 387.454 194.038 388.386 192.972Z" fill="#EDEDED"/>
<path d="M427.293 199.468H423.235V194.953C422.012 196.705 420.415 198.105 418.585 199.03C416.754 199.955 414.744 200.377 412.731 200.26C410.988 200.283 409.26 199.916 407.653 199.18C406.045 198.444 404.593 197.356 403.385 195.983C402.085 194.553 401.072 192.842 400.411 190.96C399.75 189.077 399.455 187.065 399.545 185.051C399.468 183.038 399.769 181.03 400.429 179.15C401.09 177.27 402.096 175.557 403.385 174.119C404.607 172.771 406.063 171.705 407.669 170.984C409.274 170.262 410.995 169.901 412.731 169.92C414.744 169.803 416.754 170.226 418.585 171.151C420.415 172.076 422.012 173.475 423.235 175.228V170.633H427.293V199.468ZM420.048 193.131C421.876 190.977 422.892 188.147 422.892 185.209C422.892 182.271 421.876 179.441 420.048 177.288C419.112 176.232 417.983 175.405 416.734 174.859C415.486 174.313 414.147 174.061 412.803 174.119C411.464 174.04 410.125 174.275 408.876 174.808C407.626 175.341 406.495 176.159 405.558 177.208C404.618 178.252 403.877 179.49 403.379 180.85C402.882 182.21 402.637 183.665 402.661 185.13C402.625 186.597 402.863 188.056 403.362 189.418C403.86 190.78 404.608 192.017 405.558 193.052C406.495 194.101 407.626 194.919 408.876 195.452C410.125 195.985 411.464 196.22 412.803 196.141C414.186 196.203 415.565 195.946 416.851 195.386C418.136 194.827 419.3 193.977 420.265 192.893L420.048 193.131Z" fill="#EDEDED"/>
<path d="M452.571 197.724C450.801 199.145 448.68 199.946 446.486 200.022C445.322 200.088 444.158 199.898 443.062 199.462C441.967 199.027 440.963 198.355 440.11 197.487C439.277 196.515 438.635 195.367 438.224 194.114C437.813 192.86 437.641 191.528 437.719 190.199V174.356H431.996V170.633H437.719V161.364H441.849V170.633H451.267V174.356H441.849V190.199C441.768 191.755 442.235 193.285 443.153 194.477C443.61 194.998 444.162 195.409 444.774 195.682C445.385 195.955 446.043 196.084 446.703 196.061C448.349 195.991 449.939 195.384 451.267 194.318L452.571 197.724Z" fill="#EDEDED"/>
<path d="M462.28 159.86C462.553 160.114 462.772 160.429 462.922 160.785C463.072 161.141 463.15 161.528 463.149 161.92C463.161 162.325 463.088 162.727 462.938 163.098C462.787 163.468 462.562 163.797 462.28 164.059C462.014 164.347 461.696 164.573 461.348 164.723C460.999 164.873 460.626 164.943 460.251 164.93C459.521 164.93 458.821 164.613 458.304 164.048C457.788 163.484 457.498 162.718 457.498 161.92C457.497 161.535 457.567 161.155 457.704 160.801C457.841 160.447 458.042 160.127 458.295 159.86C458.535 159.551 458.835 159.305 459.174 159.14C459.512 158.976 459.881 158.897 460.251 158.91C460.631 158.906 461.007 158.989 461.356 159.153C461.705 159.316 462.02 159.557 462.28 159.86ZM458.223 199.468V170.633H462.352V199.468H458.223Z" fill="#EDEDED"/>
<path d="M493.727 173.959C496.254 176.897 497.661 180.779 497.661 184.812C497.661 188.845 496.254 192.726 493.727 195.664C491.036 198.45 487.472 200.003 483.766 200.003C480.06 200.003 476.495 198.45 473.804 195.664C471.278 192.726 469.871 188.845 469.871 184.812C469.871 180.779 471.278 176.897 473.804 173.959C476.495 171.173 480.06 169.621 483.766 169.621C487.472 169.621 491.036 171.173 493.727 173.959ZM490.829 192.892C491.783 191.855 492.537 190.62 493.048 189.26C493.558 187.899 493.813 186.441 493.8 184.97C493.83 183.497 493.582 182.033 493.071 180.67C492.56 179.307 491.797 178.074 490.829 177.049C489.896 175.989 488.768 175.159 487.519 174.612C486.27 174.066 484.929 173.817 483.585 173.88C482.243 173.841 480.909 174.102 479.663 174.647C478.418 175.192 477.287 176.009 476.34 177.049C475.382 178.078 474.63 179.313 474.131 180.677C473.632 182.041 473.398 183.502 473.442 184.97C473.415 186.436 473.657 187.892 474.155 189.253C474.653 190.614 475.396 191.851 476.34 192.892C477.296 193.917 478.429 194.725 479.673 195.268C480.916 195.812 482.246 196.082 483.585 196.061C484.939 196.115 486.288 195.862 487.548 195.316C488.807 194.771 489.949 193.945 490.902 192.892H490.829Z" fill="#EDEDED"/>
<path d="M526.547 173.089C528.572 175.5 529.641 178.691 529.517 181.961V199.468H525.387V182.991C525.497 180.622 524.771 178.297 523.359 176.496C522.701 175.675 521.886 175.023 520.973 174.585C520.059 174.147 519.068 173.934 518.07 173.961C516.808 173.899 515.55 174.145 514.385 174.679C513.22 175.213 512.177 176.023 511.333 177.05C509.597 179.485 508.723 182.523 508.87 185.605V199.468H504.812V170.634H508.87V175.387C509.96 173.606 511.454 172.166 513.207 171.208C514.96 170.249 516.91 169.806 518.867 169.921C520.28 169.819 521.696 170.05 523.021 170.596C524.345 171.143 525.547 171.993 526.547 173.089Z" fill="#EDEDED"/>
<path d="M563.345 199.468H559.288V194.953C558.065 196.705 556.468 198.105 554.637 199.03C552.807 199.955 550.797 200.377 548.783 200.26C547.041 200.283 545.313 199.916 543.705 199.18C542.098 198.444 540.645 197.356 539.438 195.983C538.138 194.553 537.125 192.842 536.463 190.96C535.802 189.077 535.508 187.065 535.598 185.051C535.521 183.038 535.822 181.03 536.482 179.15C537.142 177.27 538.148 175.557 539.438 174.119C540.659 172.771 542.116 171.705 543.721 170.984C545.327 170.262 547.048 169.901 548.783 169.92C550.797 169.803 552.807 170.226 554.637 171.151C556.468 172.076 558.065 173.475 559.288 175.228V170.633H563.345V199.468ZM556.101 193.131C557.929 190.977 558.944 188.147 558.944 185.209C558.944 182.271 557.929 179.441 556.101 177.288C554.254 175.275 551.753 174.145 549.146 174.145C546.538 174.145 544.038 175.275 542.191 177.288C541.25 178.331 540.509 179.569 540.012 180.929C539.514 182.289 539.27 183.744 539.293 185.209C539.257 186.676 539.496 188.135 539.994 189.497C540.492 190.859 541.24 192.096 542.191 193.131C543.13 194.176 544.262 194.992 545.51 195.524C546.759 196.057 548.097 196.294 549.435 196.22C552.042 196.151 554.517 194.954 556.318 192.893L556.101 193.131Z" fill="#EDEDED"/>
<path d="M572.764 199.466V157.323H576.821V199.466H572.764Z" fill="#EDEDED"/>
<path d="M620.657 162.157C623.021 164.091 624.646 166.912 625.221 170.079L620.947 171.108C620.792 169.993 620.438 168.921 619.903 167.956C619.368 166.991 618.664 166.151 617.831 165.484C616.037 164.017 613.84 163.263 611.601 163.345C609.493 163.231 607.415 163.932 605.733 165.326C605.003 165.919 604.417 166.698 604.025 167.595C603.634 168.493 603.449 169.481 603.487 170.475C603.447 171.192 603.55 171.91 603.787 172.58C604.025 173.25 604.392 173.856 604.863 174.356C606.031 175.399 607.431 176.083 608.92 176.337L616.745 178.238C622.758 179.664 625.801 183.07 625.801 188.457C625.849 190.09 625.539 191.712 624.896 193.186C624.253 194.661 623.297 195.946 622.106 196.933C619.307 199.194 615.873 200.315 612.398 200.102C608.888 200.228 605.434 199.117 602.545 196.933C601.243 195.962 600.148 194.695 599.335 193.218C598.522 191.742 598.011 190.09 597.836 188.378L602.328 187.348C602.456 188.617 602.825 189.844 603.412 190.948C603.998 192.053 604.789 193.012 605.733 193.764C607.86 195.353 610.405 196.132 612.977 195.982C615.247 196.134 617.495 195.435 619.353 194.002C620.098 193.383 620.698 192.579 621.101 191.656C621.504 190.732 621.7 189.717 621.671 188.694C621.732 187.951 621.641 187.203 621.402 186.503C621.164 185.804 620.786 185.172 620.295 184.654C619.028 183.513 617.499 182.774 615.875 182.516L607.761 180.614C601.966 179.188 599.14 175.861 599.14 170.554C599.134 169.032 599.444 167.528 600.046 166.156C600.648 164.784 601.528 163.579 602.617 162.632C605.309 160.667 608.473 159.618 611.71 159.618C614.946 159.618 618.11 160.667 620.802 162.632L620.657 162.157Z" fill="#EDEDED"/>
<path d="M658.47 199.468H654.413V194.953C653.19 196.705 651.593 198.105 649.762 199.03C647.932 199.955 645.922 200.377 643.908 200.26C642.166 200.283 640.438 199.916 638.83 199.18C637.223 198.444 635.77 197.356 634.563 195.983C633.263 194.553 632.25 192.842 631.588 190.96C630.927 189.077 630.633 187.065 630.723 185.051C630.646 183.038 630.947 181.03 631.607 179.15C632.267 177.27 633.273 175.557 634.563 174.119C635.784 172.771 637.241 171.705 638.846 170.984C640.452 170.262 642.173 169.901 643.908 169.92C645.922 169.803 647.932 170.226 649.762 171.151C651.593 172.076 653.19 173.475 654.413 175.228V170.633H658.47V199.468ZM651.226 193.131C653.054 190.977 654.069 188.147 654.069 185.209C654.069 182.271 653.054 179.441 651.226 177.288C649.379 175.275 646.878 174.145 644.271 174.145C641.663 174.145 639.163 175.275 637.316 177.288C636.375 178.331 635.634 179.569 635.137 180.929C634.639 182.289 634.395 183.744 634.418 185.209C634.382 186.676 634.621 188.135 635.119 189.497C635.617 190.859 636.365 192.096 637.316 193.131C638.255 194.176 639.387 194.992 640.635 195.524C641.884 196.057 643.222 196.294 644.56 196.22C647.167 196.151 649.642 194.954 651.443 192.893L651.226 193.131Z" fill="#EDEDED"/>
<path d="M672.889 174.118V199.467H668.832V174.118H664.268V170.395H668.832V166.117C668.778 164.772 668.968 163.429 669.391 162.165C669.814 160.901 670.461 159.74 671.295 158.75C672.167 157.832 673.202 157.118 674.336 156.655C675.47 156.192 676.679 155.988 677.888 156.057C679.391 156.022 680.88 156.375 682.235 157.087L681.148 160.731C680.201 160.323 679.195 160.108 678.178 160.097C677.473 160.063 676.769 160.187 676.109 160.459C675.449 160.731 674.847 161.147 674.338 161.681C673.338 162.893 672.817 164.487 672.889 166.117V170.395H682.524V174.118H672.889Z" fill="#EDEDED"/>
<path d="M711.066 185.683H688.39C688.364 187.162 688.622 188.631 689.146 189.995C689.67 191.359 690.449 192.589 691.433 193.604C692.556 194.748 693.912 195.584 695.388 196.044C696.865 196.503 698.419 196.574 699.925 196.249C701.431 195.924 702.846 195.214 704.052 194.176C705.258 193.138 706.222 191.802 706.864 190.277L710.486 191.228C709.569 194.003 707.869 196.389 705.633 198.04C703.302 199.675 700.576 200.503 697.808 200.417C696.011 200.418 694.232 200.024 692.577 199.258C690.922 198.492 689.424 197.37 688.174 195.958C686.924 194.546 685.946 192.874 685.298 191.041C684.651 189.208 684.347 187.251 684.406 185.287C684.346 183.292 684.658 181.305 685.323 179.446C685.987 177.587 686.99 175.895 688.27 174.473C689.551 173.051 691.082 171.928 692.772 171.172C694.461 170.416 696.273 170.044 698.098 170.077C699.775 170.028 701.443 170.354 703 171.035C704.557 171.717 705.971 172.738 707.154 174.038C709.657 176.831 711.061 180.584 711.066 184.494V185.683ZM691.723 175.701C689.914 177.307 688.724 179.597 688.39 182.118H706.792C706.527 179.662 705.474 177.389 703.821 175.701C702.179 174.194 700.097 173.38 697.953 173.404C695.697 173.367 693.498 174.178 691.723 175.701Z" fill="#EDEDED"/>
<path d="M733.819 197.724C732.029 199.16 729.88 199.962 727.661 200.022C726.498 200.079 725.336 199.885 724.242 199.45C723.148 199.015 722.143 198.348 721.286 197.487C720.48 196.499 719.86 195.346 719.462 194.096C719.064 192.845 718.896 191.521 718.967 190.199V174.356H713.244V170.633H718.967V161.364H723.097V170.633H732.805V174.356H723.387V190.199C723.306 191.755 723.772 193.285 724.691 194.477C725.142 195.006 725.693 195.423 726.306 195.696C726.919 195.97 727.579 196.094 728.241 196.061C729.866 196 731.435 195.391 732.732 194.318L733.819 197.724Z" fill="#EDEDED"/>
<path d="M747.286 209.21H742.722L747.069 198.833L735.188 170.395H740.041L749.46 193.446L759.168 170.395H763.659L747.286 209.21Z" fill="#EDEDED"/>
<path d="M810.097 199.468L806.04 189.566H787.131L783.074 199.468H778.51L794.593 160.256H798.505L814.588 199.468H810.097ZM796.622 165.959L788.797 185.367H804.373L796.622 165.959Z" fill="#EDEDED"/>
<path d="M844.661 199.466H840.604V194.951C839.385 196.709 837.789 198.112 835.957 199.038C834.125 199.963 832.114 200.383 830.099 200.259C828.366 200.29 826.647 199.926 825.05 199.189C823.453 198.452 822.015 197.36 820.826 195.981C819.516 194.555 818.492 192.847 817.819 190.965C817.145 189.083 816.837 187.068 816.914 185.049C816.85 183.031 817.165 181.021 817.837 179.141C818.51 177.261 819.527 175.552 820.826 174.117C822.029 172.764 823.472 171.694 825.066 170.972C826.661 170.25 828.373 169.892 830.099 169.919C832.114 169.795 834.125 170.214 835.957 171.139C837.789 172.065 839.385 173.468 840.604 175.226V157.323H844.661V199.466ZM837.416 193.129C839.244 190.975 840.26 188.146 840.26 185.207C840.26 182.269 839.244 179.439 837.416 177.286C835.57 175.273 833.069 174.144 830.461 174.144C827.854 174.144 825.353 175.273 823.507 177.286C821.653 179.42 820.639 182.264 820.681 185.207C820.648 186.667 820.881 188.119 821.366 189.479C821.851 190.838 822.579 192.079 823.507 193.129C824.446 194.174 825.578 194.99 826.826 195.522C828.075 196.055 829.413 196.292 830.751 196.218C832.043 196.193 833.317 195.885 834.499 195.314C835.681 194.743 836.747 193.919 837.634 192.891L837.416 193.129Z" fill="#EDEDED"/>
<path d="M866.464 199.469H862.045L850.381 170.634H854.8L864.291 194.399L873.709 170.634H878.201L866.464 199.469Z" fill="#EDEDED"/>
<path d="M888.343 159.861C888.596 160.128 888.796 160.448 888.933 160.802C889.07 161.156 889.141 161.536 889.14 161.92C889.146 162.317 889.079 162.712 888.942 163.079C888.805 163.447 888.601 163.78 888.343 164.059C888.074 164.344 887.757 164.568 887.408 164.717C887.06 164.867 886.688 164.939 886.314 164.931C885.561 164.932 884.836 164.62 884.286 164.059C884.027 163.78 883.823 163.447 883.686 163.079C883.549 162.712 883.482 162.317 883.489 161.92C883.488 161.536 883.558 161.156 883.695 160.802C883.832 160.448 884.033 160.128 884.286 159.861C884.549 159.564 884.864 159.327 885.213 159.166C885.561 159.005 885.936 158.922 886.314 158.922C886.693 158.922 887.067 159.005 887.416 159.166C887.764 159.327 888.079 159.564 888.343 159.861ZM884.286 199.469V170.634H888.415V199.469H884.286Z" fill="#EDEDED"/>
<path d="M900.081 190.438C900.145 191.316 900.393 192.167 900.808 192.923C901.223 193.679 901.793 194.32 902.472 194.795C904.088 195.854 905.95 196.377 907.833 196.3C909.471 196.409 911.097 195.937 912.47 194.953C912.941 194.551 913.318 194.033 913.57 193.441C913.822 192.849 913.941 192.199 913.919 191.547C913.919 189.487 912.47 188.14 909.572 187.427L903.486 185.922C898.922 184.892 896.604 182.437 896.604 178.555C896.587 177.339 896.826 176.134 897.304 175.035C897.781 173.936 898.484 172.972 899.357 172.218C901.456 170.551 904.01 169.713 906.601 169.841C909.161 169.713 911.694 170.461 913.846 171.98C915.688 173.349 916.963 175.454 917.396 177.842L913.484 178.793C913.234 177.225 912.426 175.83 911.238 174.911C909.85 173.893 908.198 173.393 906.529 173.485C905.015 173.375 903.51 173.821 902.255 174.753C901.769 175.163 901.378 175.692 901.114 176.297C900.849 176.903 900.719 177.568 900.733 178.238C900.712 178.71 900.785 179.182 900.948 179.619C901.111 180.057 901.359 180.451 901.675 180.773C902.595 181.459 903.629 181.943 904.718 182.199L911.093 183.704C915.657 184.813 917.903 187.348 917.903 191.626C917.926 192.882 917.675 194.127 917.171 195.256C916.667 196.386 915.925 197.368 915.005 198.122C912.724 199.808 910.004 200.642 907.253 200.498C904.479 200.628 901.731 199.856 899.357 198.28C898.346 197.601 897.494 196.676 896.865 195.576C896.237 194.477 895.85 193.233 895.734 191.943L900.081 190.438Z" fill="#EDEDED"/>
<path d="M946.956 173.959C949.482 176.897 950.889 180.779 950.889 184.812C950.889 188.845 949.482 192.726 946.956 195.664C944.265 198.45 940.7 200.003 936.994 200.003C933.289 200.003 929.724 198.45 927.033 195.664C924.506 192.726 923.1 188.845 923.1 184.812C923.1 180.779 924.506 176.897 927.033 173.959C929.724 171.173 933.289 169.621 936.994 169.621C940.7 169.621 944.265 171.173 946.956 173.959ZM944.058 192.892C945.002 191.851 945.745 190.614 946.243 189.253C946.741 187.892 946.983 186.436 946.956 184.97C947 183.502 946.766 182.041 946.267 180.677C945.768 179.313 945.016 178.078 944.058 177.049C943.125 175.989 941.996 175.159 940.747 174.612C939.498 174.066 938.157 173.817 936.813 173.88C935.473 173.858 934.142 174.133 932.902 174.689C931.662 175.244 930.537 176.069 929.596 177.112C928.655 178.156 927.917 179.398 927.427 180.762C926.936 182.126 926.704 183.584 926.743 185.049C926.694 186.521 926.919 187.988 927.405 189.362C927.891 190.735 928.627 191.986 929.569 193.038C930.511 194.091 931.639 194.922 932.884 195.483C934.13 196.043 935.467 196.321 936.813 196.298C938.171 196.311 939.516 196.015 940.763 195.429C942.011 194.842 943.133 193.978 944.058 192.892Z" fill="#EDEDED"/>
<path d="M974.556 170.314V174.592H972.963C971.484 174.508 970.007 174.8 968.65 175.446C967.292 176.093 966.09 177.075 965.138 178.315C963.179 181.156 962.204 184.665 962.385 188.217V199.466H958.256V170.631H962.385V177.681C963.317 175.474 964.809 173.605 966.684 172.299C968.56 170.993 970.739 170.304 972.963 170.314C973.492 170.245 974.027 170.245 974.556 170.314Z" fill="#EDEDED"/>
<path d="M988.319 209.21H983.755L988.102 198.833L976.293 170.395H980.857L990.348 193.446L999.983 170.395H1004.55L988.319 209.21Z" fill="#EDEDED"/>
<path d="M1058.81 177.683C1058.85 178.342 1058.85 179.004 1058.81 179.663C1058.88 182.326 1058.47 184.979 1057.6 187.467C1056.73 189.956 1055.42 192.231 1053.74 194.16C1052.08 196.08 1050.06 197.595 1047.83 198.605C1045.59 199.615 1043.19 200.098 1040.77 200.022C1038.22 200.195 1035.67 199.797 1033.27 198.85C1030.87 197.903 1028.67 196.429 1026.81 194.518C1024.95 192.607 1023.47 190.299 1022.45 187.738C1021.44 185.176 1020.92 182.414 1020.92 179.623C1020.92 176.832 1021.44 174.071 1022.45 171.509C1023.47 168.947 1024.95 166.64 1026.81 164.729C1028.67 162.818 1030.87 161.343 1033.27 160.397C1035.67 159.45 1038.22 159.051 1040.77 159.225C1044.44 159.156 1048.05 160.198 1051.2 162.235C1054.1 164.041 1056.39 166.819 1057.72 170.157L1053.88 171.662C1052.75 169.015 1050.9 166.805 1048.59 165.325C1046.2 163.877 1043.5 163.139 1040.77 163.186C1038.87 163.134 1036.98 163.516 1035.22 164.307C1033.46 165.098 1031.87 166.281 1030.56 167.781C1029.21 169.286 1028.15 171.071 1027.44 173.029C1026.73 174.988 1026.39 177.082 1026.43 179.188C1026.4 181.299 1026.75 183.396 1027.47 185.355C1028.19 187.314 1029.27 189.096 1030.63 190.595C1031.96 192.125 1033.57 193.332 1035.35 194.137C1037.14 194.942 1039.06 195.328 1040.99 195.269C1044.47 195.379 1047.86 193.984 1050.41 191.387C1052.92 188.771 1054.48 185.257 1054.83 181.485H1038.96V177.286L1058.81 177.683Z" fill="#EDEDED"/>
<path d="M1082.93 170.316L1082.57 174.594H1081.05C1079.57 174.503 1078.09 174.793 1076.73 175.44C1075.38 176.086 1074.17 177.072 1073.23 178.317C1071.25 181.15 1070.25 184.657 1070.4 188.219V199.468H1066.05V170.633H1070.18V177.683C1071.12 175.463 1072.62 173.586 1074.51 172.279C1076.4 170.972 1078.6 170.29 1080.83 170.316C1081.53 170.205 1082.24 170.205 1082.93 170.316Z" fill="#EDEDED"/>
<path d="M1109.52 173.959C1112.05 176.897 1113.46 180.779 1113.46 184.812C1113.46 188.845 1112.05 192.726 1109.52 195.664C1106.83 198.45 1103.27 200.003 1099.56 200.003C1095.86 200.003 1092.29 198.45 1089.6 195.664C1087.07 192.726 1085.67 188.845 1085.67 184.812C1085.67 180.779 1087.07 176.897 1089.6 173.959C1092.29 171.173 1095.86 169.621 1099.56 169.621C1103.27 169.621 1106.83 171.173 1109.52 173.959ZM1106.7 192.892C1108.58 190.77 1109.62 187.924 1109.6 184.97C1109.62 183.505 1109.38 182.048 1108.88 180.688C1108.39 179.327 1107.64 178.089 1106.7 177.049C1105.28 175.508 1103.48 174.463 1101.52 174.047C1099.55 173.631 1097.52 173.863 1095.68 174.712C1093.84 175.561 1092.27 176.99 1091.18 178.817C1090.08 180.644 1089.51 182.786 1089.53 184.97C1089.51 187.155 1090.08 189.297 1091.18 191.124C1092.27 192.95 1093.84 194.379 1095.68 195.229C1097.52 196.078 1099.55 196.309 1101.52 195.893C1103.48 195.477 1105.28 194.432 1106.7 192.892Z" fill="#EDEDED"/>
<path d="M1144.38 199.469H1140.25V194.715C1139.16 196.496 1137.66 197.936 1135.91 198.895C1134.16 199.853 1132.21 200.296 1130.25 200.181C1128.82 200.252 1127.39 199.985 1126.07 199.397C1124.74 198.809 1123.55 197.914 1122.57 196.775C1120.54 194.365 1119.48 191.174 1119.6 187.903V170.634H1124.02V187.031C1123.93 189.422 1124.65 191.765 1126.05 193.606C1126.73 194.389 1127.55 195.01 1128.46 195.432C1129.37 195.854 1130.35 196.069 1131.34 196.062C1132.59 196.117 1133.84 195.877 1135 195.358C1136.17 194.838 1137.21 194.052 1138.07 193.052C1139.81 190.617 1140.68 187.58 1140.54 184.497V170.634H1144.67L1144.38 199.469Z" fill="#EDEDED"/>
<path d="M1177.63 173.881C1178.9 175.33 1179.9 177.044 1180.56 178.921C1181.22 180.799 1181.53 182.802 1181.47 184.812C1181.54 186.824 1181.24 188.831 1180.58 190.711C1179.92 192.59 1178.91 194.303 1177.63 195.744C1176.42 197.118 1174.97 198.206 1173.36 198.942C1171.75 199.677 1170.02 200.045 1168.28 200.022C1166.27 200.139 1164.26 199.717 1162.43 198.792C1160.6 197.867 1159 196.467 1157.78 194.714V209.211H1153.72V170.395H1157.78V174.99C1159 173.237 1160.6 171.837 1162.43 170.912C1164.26 169.987 1166.27 169.565 1168.28 169.682C1170.02 169.663 1171.74 170.024 1173.34 170.745C1174.95 171.466 1176.4 172.533 1177.63 173.881ZM1174.66 192.972C1175.6 191.928 1176.34 190.691 1176.84 189.33C1177.33 187.97 1177.58 186.515 1177.55 185.05C1177.57 182.097 1176.53 179.255 1174.66 177.128C1172.81 175.116 1170.31 173.986 1167.7 173.986C1165.09 173.986 1162.59 175.116 1160.75 177.128C1159.27 178.693 1158.25 180.705 1157.83 182.905C1157.41 185.106 1157.6 187.394 1158.38 189.475C1159.16 191.555 1160.5 193.332 1162.21 194.577C1163.92 195.821 1165.93 196.476 1167.99 196.457C1169.27 196.403 1170.53 196.067 1171.69 195.468C1172.84 194.869 1173.88 194.02 1174.73 192.972H1174.66Z" fill="#EDEDED"/>
</svg>
