<svg width="295" height="49" viewBox="0 0 295 49" fill="none" xmlns="http://www.w3.org/2000/svg">
<path d="M0 17.2126V24.5178L29.123 37.7204L22.2979 40.8563L0.160802 31.2349V38.9142L22.1728 48.5L42.4874 36.3841L0 17.2126Z" fill="#FDFEFF"/>
<path d="M43.4166 31.7873V24.4822L14.2936 11.2795L21.1366 8.14365L43.2737 17.765V10.0857L21.2438 0.5L0.929199 12.6158L43.4166 31.7873Z" fill="#F7941D"/>
<path d="M102.109 31.7518L99.5006 25.587H86.6007L83.9922 31.7518H79.4004L91.0675 5.32861H94.9624L106.63 31.7518H102.109ZM93.0507 10.4957L88.2624 21.7384H97.839L93.0507 10.4957Z" fill="#FDFEFF"/>
<path d="M115.17 16.999H128.91V20.8297H115.224V31.7518H110.989V5.32861H130.375V9.15935H115.224L115.17 16.999Z" fill="#FDFEFF"/>
<path d="M172.862 9.15935V31.7518H168.592V9.15935H159.283V5.32861H182.189V9.15935H172.862Z" fill="#FDFEFF"/>
<path d="M199.609 31.7518H195.374V22.9856L184.654 5.32861H189.353L197.501 18.5669L205.612 5.32861H210.472L199.609 22.9144V31.7518Z" fill="#FDFEFF"/>
<path d="M227.017 5.32864C229.374 5.2154 231.685 5.99871 233.485 7.52018C234.262 8.24829 234.881 9.12745 235.305 10.1035C235.728 11.0794 235.947 12.1316 235.947 13.195C235.947 14.2584 235.728 15.3106 235.305 16.2866C234.881 17.2626 234.262 18.1417 233.485 18.8699C231.685 20.3913 229.374 21.1746 227.017 21.0614H217.833V31.7518H215.814V5.32864H227.017ZM227.017 19.244C228.856 19.3015 230.649 18.6652 232.038 17.4623C232.659 16.917 233.151 16.2409 233.478 15.483C233.806 14.725 233.961 13.904 233.931 13.0792C233.96 12.2596 233.805 11.444 233.478 10.6918C233.15 9.93966 232.658 9.27001 232.038 8.73176C230.634 7.56579 228.842 6.96806 227.017 7.05693H217.833V19.1549L227.017 19.244Z" fill="#FDFEFF"/>
<path d="M260.982 31.7518L250.065 19.6003H244.258V31.7518H242.239V5.3286H254.299C256.461 5.2181 258.587 5.90998 260.267 7.2707C260.978 7.93715 261.545 8.74179 261.932 9.63504C262.32 10.5283 262.52 11.4912 262.52 12.4645C262.52 13.4377 262.32 14.4006 261.932 15.2939C261.545 16.1871 260.978 16.9918 260.267 17.6582C258.587 19.0189 256.461 19.7108 254.299 19.6003H252.513L263.501 31.7518H260.982ZM254.299 17.8186C255.943 17.8997 257.559 17.3732 258.838 16.3397C259.379 15.8488 259.811 15.2505 260.107 14.5831C260.403 13.9158 260.556 13.1941 260.556 12.4645C260.556 11.7348 260.403 11.0131 260.107 10.3458C259.811 9.67845 259.379 9.08013 258.838 8.58918C257.547 7.58165 255.937 7.06954 254.299 7.14597H244.258V17.8364L254.299 17.8186Z" fill="#FDFEFF"/>
<path d="M291.088 8.85645C293.599 11.4618 295.001 14.9353 295.001 18.5491C295.001 22.1629 293.599 25.6364 291.088 28.2417C288.52 30.764 285.061 32.1779 281.457 32.1779C277.853 32.1779 274.394 30.764 271.827 28.2417C269.312 25.6385 267.906 22.1642 267.906 18.5491C267.906 14.934 269.312 11.4597 271.827 8.85645C274.38 6.31374 277.84 4.8855 281.448 4.8855C285.056 4.8855 288.517 6.31374 291.07 8.85645H291.088ZM289.712 26.9411C291.856 24.6702 293.051 21.6685 293.051 18.5491C293.051 15.4297 291.856 12.428 289.712 10.1571C288.632 9.07911 287.349 8.22395 285.937 7.64049C284.526 7.05704 283.012 6.75672 281.484 6.75672C279.956 6.75672 278.443 7.05704 277.031 7.64049C275.619 8.22395 274.337 9.07911 273.256 10.1571C271.12 12.432 269.931 15.4322 269.931 18.5491C269.931 21.666 271.12 24.6662 273.256 26.9411C275.443 29.1095 278.401 30.3268 281.484 30.3268C284.568 30.3268 287.526 29.1095 289.712 26.9411Z" fill="#FDFEFF"/>
<path d="M139.612 27.921V20.3843H135.377V31.7339H155.102V27.921H139.612Z" fill="#FDFEFF"/>
<path d="M155.067 9.14153V5.32861H135.377V16.607H139.612V9.14153H155.067Z" fill="#FDFEFF"/>
<path d="M153.887 16.6069H139.612V20.3842H153.887V16.6069Z" fill="#F7941D"/>
<path d="M69.2522 17.0168L63.5705 15.7518C62.627 15.628 61.7364 15.2455 60.9977 14.6471C60.7179 14.3535 60.5008 14.0063 60.3596 13.6265C60.2183 13.2467 60.1558 12.8423 60.1758 12.4378C60.1792 11.877 60.3153 11.3249 60.573 10.8265C60.8307 10.328 61.2027 9.89726 61.6588 9.5692C62.7183 8.78303 64.0207 8.39214 65.3394 8.46452C66.8014 8.39486 68.242 8.83593 69.413 9.71173C70.4955 10.5433 71.2076 11.7653 71.3962 13.1149V13.293H75.6843V13.0792C75.698 12.1215 75.5131 11.1713 75.141 10.2882C74.769 9.40518 74.2179 8.60837 73.5224 7.94781C72.2917 6.76269 70.7981 5.88367 69.1629 5.38211C67.9476 5.0046 66.6836 4.80652 65.4108 4.79414C62.8967 4.68503 60.4202 5.43281 58.3891 6.9144C57.5274 7.58534 56.837 8.45002 56.3744 9.43782C55.9117 10.4256 55.6899 11.5085 55.727 12.5981C55.727 16.3398 57.9425 18.7154 62.3735 19.7251L68.1266 20.9189C69.1888 21.0586 70.191 21.4905 71.021 22.1661C71.3233 22.4607 71.558 22.8172 71.7091 23.2108C71.8602 23.6045 71.9242 24.0261 71.8965 24.4467C71.9007 25.0271 71.7707 25.6007 71.5166 26.1229C71.2626 26.6451 70.8912 27.1019 70.4314 27.4578C69.2047 28.2608 67.7512 28.6482 66.2863 28.5625C64.6813 28.6259 63.0997 28.1628 61.7838 27.244C61.1517 26.8182 60.6209 26.2592 60.2288 25.6066C59.8368 24.9539 59.593 24.2235 59.5148 23.4668H54.9766C54.9944 23.6207 54.9944 23.7761 54.9766 23.93C54.9583 24.1969 54.9583 24.4648 54.9766 24.7318C55.0999 25.694 55.403 26.6247 55.8699 27.4757C56.329 28.2864 56.9348 29.0053 57.6566 29.5959C57.9196 29.8362 58.2003 30.0566 58.4963 30.2552C60.7204 31.6632 63.3131 32.3824 65.9468 32.322C68.5933 32.4513 71.2043 31.6715 73.3437 30.1126C74.2396 29.4194 74.96 28.5264 75.4471 27.5053C75.9343 26.4842 76.1746 25.3634 76.1488 24.2329C76.1309 20.42 73.844 17.9612 69.2522 17.0168Z" fill="#FDFEFF"/>
<path d="M63.9278 37.6492C64.6971 38.5252 65.1043 39.6597 65.0673 40.8235C65.0303 41.9873 64.5518 43.0937 63.7284 43.9193C62.9051 44.7449 61.7982 45.2282 60.6314 45.2715C59.4646 45.3148 58.3248 44.9149 57.4422 44.1526C56.5856 43.2859 56.1055 42.1178 56.1055 40.9009C56.1055 39.684 56.5856 38.516 57.4422 37.6492C58.306 36.7919 59.4752 36.3105 60.6939 36.3105C61.9127 36.3105 63.0819 36.7919 63.9457 37.6492H63.9278ZM63.1774 43.4577C63.5097 43.119 63.7709 42.7177 63.9458 42.2771C64.1206 41.8366 64.2057 41.3657 64.1958 40.892C64.2057 40.4183 64.1206 39.9474 63.9458 39.5069C63.7709 39.0663 63.5097 38.665 63.1774 38.3263C62.5095 37.6734 61.6114 37.3077 60.6761 37.3077C59.7407 37.3077 58.8427 37.6734 58.1747 38.3263C57.8424 38.665 57.5812 39.0663 57.4064 39.5069C57.2315 39.9474 57.1465 40.4183 57.1563 40.892C57.1465 41.3657 57.2315 41.8366 57.4064 42.2771C57.5812 42.7177 57.8424 43.119 58.1747 43.4577C58.8427 44.1106 59.7407 44.4763 60.6761 44.4763C61.6114 44.4763 62.5095 44.1106 63.1774 43.4577Z" fill="#F7941D"/>
<path d="M71.289 44.1701C71.6897 43.9271 71.9784 43.5367 72.093 43.0833L73.0221 43.3327C72.8525 43.9754 72.4519 44.5334 71.8965 44.9007C71.3244 45.2938 70.6437 45.4993 69.949 45.4886C69.0514 45.5043 68.1842 45.1647 67.537 44.5443C66.8982 43.8807 66.5415 42.9965 66.5415 42.0766C66.5415 41.1567 66.8982 40.2725 67.537 39.6089C68.1842 38.9885 69.0514 38.6489 69.949 38.6646C70.6378 38.6564 71.3121 38.8619 71.8786 39.2526C72.444 39.6171 72.8568 40.1744 73.04 40.8205L72.0752 41.1056C71.9495 40.648 71.6644 40.25 71.2712 39.983C70.8851 39.7102 70.4221 39.5667 69.949 39.5733C69.6176 39.559 69.2869 39.6152 68.9788 39.738C68.6708 39.8609 68.3925 40.0477 68.1623 40.2859C67.7191 40.7741 67.4737 41.4092 67.4737 42.0677C67.4737 42.7262 67.7191 43.3612 68.1623 43.8494C68.3949 44.0822 68.6745 44.263 68.9826 44.3797C69.2906 44.4965 69.6201 44.5465 69.949 44.5265C70.4208 44.539 70.8861 44.4153 71.289 44.1701Z" fill="#F7941D"/>
<path d="M78.8823 44.1701C79.2829 43.9271 79.5717 43.5367 79.6863 43.0833L80.6154 43.3327C80.4458 43.9754 80.0452 44.5334 79.4898 44.9007C78.9177 45.2938 78.237 45.4993 77.5423 45.4886C76.6447 45.5043 75.7774 45.1647 75.1302 44.5443C74.4915 43.8807 74.1348 42.9965 74.1348 42.0766C74.1348 41.1567 74.4915 40.2725 75.1302 39.6089C75.7774 38.9885 76.6447 38.6489 77.5423 38.6646C78.2361 38.6596 78.9152 38.8647 79.4898 39.2526C80.0451 39.6237 80.4503 40.1793 80.6333 40.8205L79.6684 41.1056C79.5347 40.6663 79.2581 40.2839 78.8823 40.0187C78.4886 39.7477 78.0206 39.6046 77.5423 39.6089C77.2104 39.5911 76.8787 39.6456 76.5701 39.7687C76.2615 39.8918 75.9836 40.0805 75.7556 40.3216C75.5176 40.5518 75.3309 40.8295 75.2077 41.1365C75.0846 41.4435 75.0277 41.7729 75.0409 42.1033C75.0298 42.4319 75.0858 42.7593 75.2056 43.0656C75.3254 43.3719 75.5064 43.6507 75.7377 43.8851C75.9703 44.1178 76.2499 44.2986 76.558 44.4153C76.866 44.5321 77.1955 44.5821 77.5244 44.5621C78.0058 44.5675 78.4782 44.4311 78.8823 44.1701Z" fill="#F7941D"/>
<path d="M88.2983 45.3639H87.2798V44.2949C87.0139 44.694 86.6483 45.0172 86.2192 45.2327C85.79 45.4483 85.312 45.5488 84.8321 45.5243C84.477 45.5405 84.1226 45.4804 83.7928 45.3483C83.463 45.2161 83.1654 45.0149 82.9203 44.7582C82.4338 44.2093 82.1779 43.4946 82.2057 42.7626V38.8784H83.2241V42.5666C83.1944 43.1053 83.3735 43.6348 83.7243 44.0454C83.8925 44.2213 84.0949 44.3611 84.3192 44.4561C84.5435 44.5511 84.7849 44.5993 85.0286 44.5978C85.3357 44.6124 85.6422 44.5593 85.9263 44.4423C86.2104 44.3252 86.4652 44.1472 86.6724 43.9207C87.1078 43.377 87.3244 42.6909 87.2798 41.9965V38.8784H88.2983V45.3639Z" fill="#F7941D"/>
<path d="M96.4993 39.609C96.8196 39.9317 97.0704 40.3162 97.2364 40.739C97.4023 41.1618 97.4798 41.614 97.4641 42.0678C97.483 42.5219 97.407 42.975 97.2409 43.3983C97.0748 43.8216 96.8223 44.2059 96.4993 44.5266C96.2048 44.835 95.8498 45.0796 95.4563 45.2452C95.0628 45.4107 94.6394 45.4936 94.2123 45.4888C93.7155 45.5166 93.2194 45.4223 92.7676 45.2142C92.3159 45.006 91.9224 44.6904 91.6216 44.295V47.5555H90.6211V38.825H91.6216V39.8585C91.9224 39.4631 92.3159 39.1474 92.7676 38.9392C93.2194 38.7311 93.7155 38.6368 94.2123 38.6647C94.6376 38.6607 95.0594 38.7422 95.4523 38.9045C95.8453 39.0667 96.2014 39.3063 96.4993 39.609ZM95.7846 43.903C96.0134 43.6669 96.1928 43.3878 96.3124 43.0819C96.4321 42.776 96.4895 42.4495 96.4814 42.1212C96.4919 41.4593 96.2417 40.8196 95.7846 40.3395C95.5516 40.1063 95.2723 39.924 94.9647 39.8044C94.6571 39.6847 94.3278 39.6303 93.9979 39.6446C93.6812 39.6417 93.3673 39.7035 93.0754 39.8261C92.7835 39.9486 92.5198 40.1294 92.3006 40.3573C91.8498 40.8417 91.5992 41.4782 91.5992 42.1391C91.5992 42.8 91.8498 43.4364 92.3006 43.9208C92.5223 44.1455 92.7865 44.3241 93.0778 44.4464C93.3691 44.5687 93.6818 44.6323 93.9979 44.6335C94.3304 44.6432 94.6613 44.5832 94.969 44.4574C95.2768 44.3315 95.5547 44.1427 95.7846 43.903Z" fill="#F7941D"/>
<path d="M105.379 45.364H104.379V44.3484C104.077 44.7427 103.683 45.0575 103.232 45.2655C102.78 45.4735 102.285 45.5685 101.788 45.5422C101.358 45.5474 100.932 45.4647 100.536 45.2992C100.139 45.1337 99.781 44.889 99.4831 44.5801C99.1625 44.2584 98.9126 43.8737 98.7496 43.4503C98.5865 43.0269 98.5138 42.5742 98.5362 42.1213C98.5171 41.6686 98.5913 41.2169 98.7542 40.794C98.917 40.3711 99.1651 39.986 99.4831 39.6625C99.7844 39.3593 100.144 39.1195 100.54 38.9573C100.935 38.7951 101.36 38.7138 101.788 38.7182C102.285 38.6918 102.78 38.7868 103.232 38.9948C103.683 39.2029 104.077 39.5177 104.379 39.9119V38.8785H105.379V45.364ZM103.592 43.9386C104.043 43.4542 104.294 42.8178 104.294 42.1569C104.294 41.496 104.043 40.8596 103.592 40.3752C103.362 40.1378 103.083 39.9516 102.775 39.8288C102.467 39.706 102.137 39.6494 101.806 39.6625C101.476 39.6448 101.145 39.6976 100.837 39.8174C100.529 39.9373 100.25 40.1214 100.019 40.3574C99.7871 40.592 99.6044 40.8705 99.4817 41.1764C99.359 41.4823 99.2987 41.8096 99.3044 42.1391C99.2956 42.469 99.3545 42.7971 99.4774 43.1035C99.6003 43.4099 99.7846 43.688 100.019 43.9208C100.25 44.1568 100.529 44.3409 100.837 44.4607C101.145 44.5806 101.476 44.6334 101.806 44.6157C102.147 44.6296 102.487 44.5718 102.804 44.4459C103.121 44.3201 103.408 44.129 103.646 43.8852L103.592 43.9386Z" fill="#F7941D"/>
<path d="M111.615 44.9721C111.178 45.2916 110.655 45.4717 110.114 45.4888C109.827 45.5037 109.54 45.4609 109.27 45.363C109 45.265 108.752 45.1139 108.542 44.9187C108.336 44.7001 108.178 44.4419 108.077 44.16C107.975 43.878 107.933 43.5784 107.952 43.2795V39.716H106.541V38.8786H107.952V36.7939H108.97V38.8786H111.293V39.716H108.97V43.2795C108.95 43.6294 109.066 43.9736 109.292 44.2416C109.405 44.3589 109.541 44.4513 109.692 44.5126C109.843 44.574 110.005 44.6031 110.168 44.598C110.574 44.5822 110.966 44.4457 111.293 44.206L111.615 44.9721Z" fill="#F7941D"/>
<path d="M114.009 36.4553C114.076 36.5123 114.13 36.5833 114.167 36.6633C114.204 36.7433 114.223 36.8304 114.223 36.9185C114.226 37.0097 114.208 37.1002 114.171 37.1835C114.134 37.2668 114.079 37.3407 114.009 37.3996C113.943 37.4645 113.865 37.5154 113.779 37.5491C113.693 37.5828 113.601 37.5986 113.509 37.5956C113.328 37.5956 113.156 37.5243 113.028 37.3973C112.901 37.2703 112.83 37.0981 112.83 36.9185C112.829 36.8321 112.847 36.7465 112.88 36.6669C112.914 36.5873 112.964 36.5153 113.026 36.4553C113.085 36.3858 113.159 36.3304 113.243 36.2934C113.326 36.2564 113.417 36.2387 113.509 36.2415C113.602 36.2408 113.695 36.2594 113.781 36.2962C113.867 36.333 113.945 36.3872 114.009 36.4553ZM113.008 45.364V38.8785H114.027V45.364H113.008Z" fill="#F7941D"/>
<path d="M121.763 39.6268C122.386 40.2877 122.733 41.1607 122.733 42.0678C122.733 42.9749 122.386 43.8479 121.763 44.5088C121.099 45.1354 120.22 45.4845 119.306 45.4845C118.392 45.4845 117.513 45.1354 116.849 44.5088C116.226 43.8479 115.879 42.9749 115.879 42.0678C115.879 41.1607 116.226 40.2877 116.849 39.6268C117.513 39.0003 118.392 38.6511 119.306 38.6511C120.22 38.6511 121.099 39.0003 121.763 39.6268ZM121.048 43.8852C121.283 43.652 121.469 43.3743 121.595 43.0682C121.721 42.7622 121.784 42.4342 121.781 42.1035C121.788 41.7722 121.727 41.4429 121.601 41.1363C121.475 40.8297 121.287 40.5524 121.048 40.3217C120.818 40.0834 120.54 39.8967 120.232 39.7738C119.924 39.6509 119.593 39.5948 119.261 39.609C118.931 39.6003 118.602 39.6589 118.294 39.7815C117.987 39.904 117.708 40.0879 117.475 40.3217C117.239 40.5532 117.053 40.8311 116.93 41.1378C116.807 41.4445 116.749 41.7733 116.76 42.1035C116.753 42.4331 116.813 42.7606 116.936 43.0667C117.059 43.3728 117.242 43.6512 117.475 43.8852C117.711 44.1157 117.99 44.2974 118.297 44.4197C118.603 44.5421 118.931 44.6026 119.261 44.5979C119.595 44.6102 119.928 44.5532 120.239 44.4305C120.549 44.3079 120.831 44.1221 121.066 43.8852H121.048Z" fill="#F7941D"/>
<path d="M129.857 39.4308C130.356 39.973 130.62 40.6907 130.589 41.4263V45.364H129.571V41.658C129.598 41.1251 129.419 40.6022 129.07 40.197C128.908 40.0124 128.707 39.8657 128.482 39.7672C128.257 39.6687 128.012 39.6207 127.766 39.6268C127.455 39.613 127.145 39.6682 126.857 39.7883C126.57 39.9085 126.313 40.0906 126.105 40.3217C125.677 40.8694 125.461 41.5525 125.497 42.2459V45.364H124.497V38.8785H125.497V39.9475C125.766 39.547 126.135 39.2231 126.567 39.0076C126.999 38.792 127.48 38.6923 127.963 38.7181C128.311 38.6953 128.66 38.7471 128.987 38.8701C129.314 38.993 129.61 39.1842 129.857 39.4308Z" fill="#F7941D"/>
<path d="M138.933 45.364H137.932V44.3484C137.631 44.7427 137.237 45.0575 136.785 45.2655C136.334 45.4735 135.838 45.5685 135.342 45.5422C134.912 45.5474 134.486 45.4647 134.089 45.2992C133.693 45.1337 133.335 44.889 133.037 44.5801C132.716 44.2584 132.466 43.8737 132.303 43.4503C132.14 43.0269 132.068 42.5742 132.09 42.1213C132.071 41.6686 132.145 41.2169 132.308 40.794C132.471 40.3711 132.719 39.986 133.037 39.6625C133.338 39.3593 133.697 39.1195 134.093 38.9573C134.489 38.7951 134.914 38.7138 135.342 38.7182C135.838 38.6918 136.334 38.7868 136.785 38.9948C137.237 39.2029 137.631 39.5177 137.932 39.9119V38.8785H138.933V45.364ZM137.146 43.9386C137.597 43.4542 137.848 42.8178 137.848 42.1569C137.848 41.496 137.597 40.8596 137.146 40.3752C136.691 39.9225 136.074 39.6684 135.431 39.6684C134.788 39.6684 134.171 39.9225 133.716 40.3752C133.484 40.6098 133.301 40.8883 133.178 41.1942C133.056 41.5002 132.995 41.8274 133.001 42.1569C132.992 42.4868 133.051 42.815 133.174 43.1213C133.297 43.4277 133.481 43.7058 133.716 43.9386C133.947 44.1737 134.227 44.3572 134.534 44.4769C134.842 44.5967 135.172 44.6501 135.502 44.6335C136.145 44.6178 136.756 44.3488 137.2 43.8852L137.146 43.9386Z" fill="#F7941D"/>
<path d="M141.256 45.3641V35.8853H142.256V45.3641H141.256Z" fill="#F7941D"/>
<path d="M153.066 36.9719C153.649 37.4068 154.049 38.0415 154.191 38.7536L153.137 38.9853C153.099 38.7343 153.012 38.4933 152.88 38.2762C152.748 38.0591 152.574 37.8702 152.369 37.7202C151.926 37.3904 151.384 37.2207 150.832 37.2392C150.312 37.2135 149.8 37.3712 149.385 37.6846C149.205 37.818 149.06 37.9933 148.964 38.1951C148.867 38.397 148.822 38.6193 148.831 38.8427C148.821 39.004 148.847 39.1656 148.905 39.3162C148.964 39.4669 149.054 39.6032 149.171 39.7158C149.458 39.9503 149.804 40.1041 150.171 40.1612L152.101 40.5888C153.584 40.9096 154.334 41.6757 154.334 42.8873C154.346 43.2545 154.27 43.6193 154.111 43.9511C153.953 44.2828 153.717 44.5717 153.423 44.7937C152.733 45.3024 151.886 45.5545 151.029 45.5064C150.163 45.5349 149.311 45.285 148.599 44.7937C148.278 44.5753 148.008 44.2904 147.807 43.9582C147.607 43.6261 147.481 43.2547 147.438 42.8695L148.545 42.6378C148.577 42.9234 148.668 43.1992 148.813 43.4477C148.957 43.6962 149.152 43.9119 149.385 44.081C149.91 44.4383 150.537 44.6136 151.172 44.5799C151.731 44.614 152.286 44.4569 152.744 44.1345C152.928 43.9954 153.076 43.8144 153.175 43.6068C153.275 43.3991 153.323 43.1707 153.316 42.9407C153.331 42.7736 153.308 42.6052 153.249 42.4479C153.191 42.2907 153.097 42.1486 152.976 42.032C152.664 41.7754 152.287 41.609 151.886 41.551L149.885 41.1233C148.456 40.8026 147.759 40.0543 147.759 38.8606C147.758 38.5182 147.834 38.18 147.983 37.8714C148.131 37.5628 148.348 37.2918 148.617 37.0788C149.281 36.6368 150.061 36.4009 150.859 36.4009C151.657 36.4009 152.437 36.6368 153.101 37.0788L153.066 36.9719Z" fill="#F7941D"/>
<path d="M162.392 45.364H161.392V44.3484C161.09 44.7427 160.696 45.0575 160.245 45.2655C159.793 45.4735 159.298 45.5685 158.801 45.5422C158.371 45.5474 157.945 45.4647 157.549 45.2992C157.152 45.1337 156.794 44.889 156.496 44.5801C156.176 44.2584 155.926 43.8737 155.763 43.4503C155.6 43.0269 155.527 42.5742 155.549 42.1213C155.53 41.6686 155.604 41.2169 155.767 40.794C155.93 40.3711 156.178 39.986 156.496 39.6625C156.798 39.3593 157.157 39.1195 157.553 38.9573C157.949 38.7951 158.373 38.7138 158.801 38.7182C159.298 38.6918 159.793 38.7868 160.245 38.9948C160.696 39.2029 161.09 39.5177 161.392 39.9119V38.8785H162.392V45.364ZM160.606 43.9386C161.057 43.4542 161.307 42.8178 161.307 42.1569C161.307 41.496 161.057 40.8596 160.606 40.3752C160.15 39.9225 159.533 39.6684 158.89 39.6684C158.247 39.6684 157.631 39.9225 157.175 40.3752C156.943 40.6098 156.761 40.8883 156.638 41.1942C156.515 41.5002 156.455 41.8274 156.461 42.1569C156.452 42.4868 156.511 42.815 156.633 43.1213C156.756 43.4277 156.941 43.7058 157.175 43.9386C157.407 44.1737 157.686 44.3572 157.994 44.4769C158.302 44.5967 158.632 44.6501 158.962 44.6335C159.605 44.6178 160.215 44.3488 160.659 43.8852L160.606 43.9386Z" fill="#F7941D"/>
<path d="M165.948 39.6625V45.364H164.947V39.6625H163.822V38.825H164.947V37.8629C164.934 37.5604 164.981 37.2583 165.085 36.9739C165.19 36.6896 165.349 36.4286 165.555 36.2059C165.77 35.9992 166.025 35.8389 166.305 35.7346C166.584 35.6304 166.883 35.5846 167.181 35.6001C167.551 35.5922 167.919 35.6715 168.253 35.8317L167.985 36.6513C167.751 36.5596 167.503 36.5113 167.252 36.5088C167.078 36.5012 166.905 36.5289 166.742 36.5902C166.579 36.6514 166.431 36.745 166.305 36.8651C166.059 37.1376 165.93 37.4963 165.948 37.8629V38.825H168.324V39.6625H165.948Z" fill="#F7941D"/>
<path d="M175.363 42.2638H169.771C169.765 42.5965 169.828 42.9269 169.957 43.2338C170.087 43.5406 170.279 43.8171 170.521 44.0455C170.799 44.3027 171.133 44.4908 171.497 44.5942C171.861 44.6976 172.244 44.7134 172.616 44.6404C172.987 44.5673 173.336 44.4075 173.633 44.174C173.931 43.9405 174.169 43.64 174.327 43.2972L175.22 43.511C174.994 44.1353 174.575 44.6718 174.023 45.0433C173.449 45.4109 172.776 45.5972 172.094 45.5778C171.65 45.578 171.212 45.4894 170.804 45.3171C170.395 45.1448 170.026 44.8924 169.718 44.5749C169.409 44.2574 169.168 43.8813 169.009 43.469C168.849 43.0566 168.774 42.6165 168.788 42.1747C168.774 41.7261 168.851 41.2791 169.015 40.861C169.178 40.4429 169.426 40.0624 169.742 39.7425C170.057 39.4226 170.435 39.17 170.852 39C171.268 38.8301 171.715 38.7463 172.165 38.7538C172.579 38.7428 172.99 38.8161 173.374 38.9693C173.758 39.1225 174.107 39.3523 174.399 39.6446C175.016 40.2729 175.362 41.117 175.363 41.9965V42.2638ZM170.593 40.0188C170.147 40.3799 169.853 40.8951 169.771 41.462H174.309C174.244 40.9097 173.984 40.3984 173.577 40.0188C173.172 39.6799 172.658 39.4966 172.129 39.5021C171.573 39.4938 171.031 39.6762 170.593 40.0188Z" fill="#F7941D"/>
<path d="M180.974 44.9721C180.532 45.295 180.002 45.4753 179.455 45.4888C179.168 45.5017 178.882 45.458 178.612 45.3602C178.342 45.2623 178.094 45.1123 177.883 44.9187C177.684 44.6964 177.531 44.4372 177.433 44.1559C177.335 43.8746 177.293 43.5768 177.311 43.2795V39.716H175.899V38.8786H177.311V36.7939H178.329V38.8786H180.723V39.716H178.401V43.2795C178.381 43.6294 178.496 43.9736 178.722 44.2416C178.834 44.3608 178.97 44.4544 179.121 44.5159C179.272 44.5774 179.435 44.6054 179.598 44.598C179.999 44.5842 180.386 44.4473 180.706 44.206L180.974 44.9721Z" fill="#F7941D"/>
<path d="M184.297 47.5557H183.172L184.244 45.2216L181.313 38.8252H182.511L184.833 44.0101L187.227 38.8252H188.335L184.297 47.5557Z" fill="#F7941D"/>
<path d="M199.788 45.364L198.787 43.1369H194.124L193.123 45.364H191.998L195.964 36.5444H196.929L200.895 45.364H199.788ZM196.464 37.8273L194.535 42.1925H198.376L196.464 37.8273Z" fill="#F7941D"/>
<path d="M208.31 45.3641H207.31V44.3485C207.009 44.7439 206.615 45.0596 206.164 45.2677C205.712 45.4759 205.216 45.5702 204.719 45.5423C204.292 45.5493 203.867 45.4674 203.474 45.3017C203.08 45.136 202.725 44.8903 202.432 44.5801C202.109 44.2594 201.856 43.8752 201.69 43.4519C201.524 43.0286 201.448 42.5755 201.467 42.1213C201.452 41.6676 201.529 41.2154 201.695 40.7926C201.861 40.3697 202.112 39.9852 202.432 39.6626C202.729 39.3582 203.085 39.1175 203.478 38.9551C203.871 38.7927 204.293 38.7121 204.719 38.7182C205.216 38.6904 205.712 38.7846 206.164 38.9928C206.615 39.201 207.009 39.5166 207.31 39.912V35.8853H208.31V45.3641ZM206.524 43.9387C206.974 43.4543 207.225 42.8179 207.225 42.157C207.225 41.4961 206.974 40.8596 206.524 40.3752C206.068 39.9226 205.451 39.6685 204.808 39.6685C204.165 39.6685 203.549 39.9226 203.093 40.3752C202.636 40.8554 202.386 41.495 202.396 42.157C202.388 42.4852 202.446 42.8118 202.565 43.1176C202.685 43.4235 202.864 43.7026 203.093 43.9387C203.325 44.1738 203.604 44.3572 203.912 44.477C204.22 44.5968 204.55 44.6501 204.88 44.6336C205.198 44.6278 205.513 44.5586 205.804 44.4301C206.096 44.3016 206.358 44.1164 206.577 43.8853L206.524 43.9387Z" fill="#F7941D"/>
<path d="M213.688 45.3639H212.598L209.722 38.8784H210.812L213.152 44.2236L215.475 38.8784H216.583L213.688 45.3639Z" fill="#F7941D"/>
<path d="M219.084 36.4553C219.146 36.5153 219.196 36.5873 219.23 36.6669C219.263 36.7465 219.281 36.8321 219.28 36.9185C219.282 37.0078 219.265 37.0965 219.232 37.1792C219.198 37.2619 219.148 37.3369 219.084 37.3996C219.018 37.4637 218.939 37.514 218.853 37.5477C218.768 37.5813 218.676 37.5976 218.584 37.5956C218.398 37.5959 218.219 37.5258 218.083 37.3996C218.02 37.3369 217.969 37.2619 217.936 37.1792C217.902 37.0965 217.885 37.0078 217.887 36.9185C217.887 36.8321 217.904 36.7465 217.938 36.6669C217.971 36.5873 218.021 36.5153 218.083 36.4553C218.148 36.3885 218.226 36.3354 218.312 36.2991C218.398 36.2628 218.49 36.2441 218.584 36.2441C218.677 36.2441 218.769 36.2628 218.855 36.2991C218.941 36.3354 219.019 36.3885 219.084 36.4553ZM218.083 45.364V38.8785H219.102V45.364H218.083Z" fill="#F7941D"/>
<path d="M221.978 43.333C221.994 43.5307 222.055 43.722 222.158 43.8921C222.26 44.0621 222.4 44.2061 222.568 44.3129C222.966 44.5513 223.426 44.669 223.89 44.6515C224.294 44.6761 224.695 44.5699 225.033 44.3486C225.15 44.2583 225.243 44.1417 225.305 44.0085C225.367 43.8753 225.396 43.7292 225.391 43.5824C225.391 43.1192 225.033 42.8163 224.319 42.6559L222.818 42.3174C221.692 42.0857 221.121 41.5334 221.121 40.6604C221.116 40.3867 221.176 40.1158 221.293 39.8686C221.411 39.6214 221.584 39.4046 221.8 39.235C222.317 38.8601 222.947 38.6716 223.586 38.7005C224.218 38.6716 224.842 38.8397 225.373 39.1815C225.827 39.4893 226.142 39.9629 226.248 40.5L225.284 40.7138C225.222 40.3612 225.023 40.0474 224.73 39.8408C224.387 39.6118 223.98 39.4993 223.568 39.5201C223.195 39.4953 222.824 39.5957 222.514 39.8051C222.394 39.8973 222.298 40.0163 222.233 40.1525C222.168 40.2887 222.136 40.4383 222.139 40.5891C222.134 40.6953 222.152 40.8013 222.192 40.8998C222.232 40.9982 222.293 41.0868 222.371 41.1593C222.598 41.3135 222.853 41.4224 223.122 41.48L224.694 41.8185C225.82 42.0679 226.374 42.6381 226.374 43.6002C226.379 43.8828 226.317 44.1627 226.193 44.4168C226.069 44.6708 225.886 44.8917 225.659 45.0613C225.096 45.4407 224.425 45.6282 223.747 45.5958C223.063 45.625 222.385 45.4514 221.8 45.0969C221.55 44.9442 221.34 44.7361 221.185 44.4888C221.03 44.2415 220.935 43.9618 220.906 43.6715L221.978 43.333Z" fill="#F7941D"/>
<path d="M233.538 39.6268C234.161 40.2877 234.508 41.1607 234.508 42.0678C234.508 42.9749 234.161 43.8479 233.538 44.5088C232.875 45.1354 231.995 45.4845 231.081 45.4845C230.168 45.4845 229.288 45.1354 228.625 44.5088C228.002 43.8479 227.655 42.9749 227.655 42.0678C227.655 41.1607 228.002 40.2877 228.625 39.6268C229.288 39.0003 230.168 38.6511 231.081 38.6511C231.995 38.6511 232.875 39.0003 233.538 39.6268ZM232.824 43.8852C233.056 43.6512 233.24 43.3728 233.362 43.0667C233.485 42.7606 233.545 42.4331 233.538 42.1035C233.549 41.7733 233.491 41.4445 233.368 41.1378C233.245 40.8311 233.06 40.5532 232.824 40.3217C232.593 40.0834 232.315 39.8967 232.007 39.7738C231.699 39.6509 231.368 39.5948 231.037 39.609C230.706 39.6041 230.378 39.6659 230.072 39.7909C229.766 39.9158 229.489 40.1013 229.257 40.3361C229.025 40.5708 228.843 40.8501 228.722 41.1569C228.601 41.4637 228.544 41.7917 228.553 42.1213C228.541 42.4523 228.597 42.7823 228.717 43.0912C228.836 43.4001 229.018 43.6815 229.25 43.9181C229.483 44.1548 229.761 44.3419 230.068 44.4679C230.375 44.594 230.705 44.6564 231.037 44.6514C231.372 44.6543 231.703 44.5877 232.011 44.4558C232.319 44.3239 232.595 44.1296 232.824 43.8852Z" fill="#F7941D"/>
<path d="M240.345 38.8073V39.7694H239.952C239.587 39.7505 239.223 39.8163 238.889 39.9616C238.554 40.1069 238.257 40.3278 238.023 40.6068C237.539 41.2458 237.299 42.0349 237.344 42.834V45.3641H236.325V38.8785H237.344V40.4643C237.573 39.9677 237.941 39.5474 238.404 39.2536C238.866 38.9598 239.404 38.8049 239.952 38.8073C240.083 38.7918 240.215 38.7918 240.345 38.8073Z" fill="#F7941D"/>
<path d="M243.74 47.5557H242.615L243.687 45.2216L240.774 38.8252H241.9L244.241 44.0101L246.617 38.8252H247.742L243.74 47.5557Z" fill="#F7941D"/>
<path d="M261.125 40.4641C261.135 40.6124 261.135 40.7612 261.125 40.9095C261.143 41.5085 261.042 42.1052 260.827 42.6649C260.613 43.2246 260.289 43.7362 259.874 44.1701C259.464 44.6021 258.967 44.9428 258.416 45.17C257.865 45.3972 257.272 45.5058 256.676 45.4886C256.047 45.5276 255.418 45.438 254.826 45.2251C254.233 45.0122 253.691 44.6806 253.232 44.2507C252.774 43.8208 252.408 43.3018 252.158 42.7256C251.908 42.1495 251.779 41.5284 251.779 40.9006C251.779 40.2728 251.908 39.6517 252.158 39.0755C252.408 38.4994 252.774 37.9804 253.232 37.5505C253.691 37.1206 254.233 36.789 254.826 36.5761C255.418 36.3632 256.047 36.2736 256.676 36.3126C257.58 36.2971 258.47 36.5314 259.249 36.9897C259.963 37.3958 260.527 38.0206 260.857 38.7714L259.91 39.11C259.629 38.5145 259.174 38.0176 258.605 37.6846C258.015 37.3588 257.35 37.193 256.676 37.2035C256.207 37.1918 255.741 37.2777 255.307 37.4556C254.873 37.6335 254.482 37.8996 254.157 38.2369C253.824 38.5756 253.563 38.9769 253.388 39.4174C253.213 39.858 253.128 40.3289 253.138 40.8026C253.131 41.2776 253.219 41.7492 253.396 42.1898C253.574 42.6304 253.839 43.0311 254.174 43.3683C254.503 43.7124 254.9 43.9838 255.34 44.1649C255.78 44.3461 256.253 44.4328 256.729 44.4195C257.589 44.4443 258.423 44.1306 259.052 43.5465C259.671 42.958 260.058 42.1678 260.142 41.3193H256.229V40.375L261.125 40.4641Z" fill="#F7941D"/>
<path d="M267.074 38.8074L266.985 39.7695H266.61C266.245 39.7492 265.88 39.8144 265.545 39.9598C265.21 40.1052 264.914 40.3268 264.68 40.6069C264.192 41.2443 263.945 42.033 263.983 42.8341V45.3642H262.911V38.8787H263.93V40.4644C264.16 39.965 264.531 39.5429 264.997 39.2489C265.463 38.9549 266.005 38.8016 266.556 38.8074C266.728 38.7823 266.902 38.7823 267.074 38.8074Z" fill="#F7941D"/>
<path d="M273.631 39.6268C274.255 40.2877 274.601 41.1607 274.601 42.0678C274.601 42.9749 274.255 43.8479 273.631 44.5088C272.968 45.1354 272.089 45.4845 271.175 45.4845C270.261 45.4845 269.382 45.1354 268.718 44.5088C268.095 43.8479 267.748 42.9749 267.748 42.0678C267.748 41.1607 268.095 40.2877 268.718 39.6268C269.382 39.0003 270.261 38.6511 271.175 38.6511C272.089 38.6511 272.968 39.0003 273.631 39.6268ZM272.935 43.8852C273.398 43.4079 273.655 42.7679 273.649 42.1035C273.656 41.7739 273.596 41.4463 273.473 41.1402C273.351 40.8341 273.167 40.5558 272.935 40.3217C272.585 39.9752 272.14 39.7403 271.657 39.6467C271.173 39.5531 270.672 39.6051 270.218 39.7961C269.764 39.9872 269.377 40.3086 269.107 40.7194C268.837 41.1303 268.695 41.6121 268.7 42.1035C268.695 42.5948 268.837 43.0766 269.107 43.4875C269.377 43.8983 269.764 44.2198 270.218 44.4108C270.672 44.6018 271.173 44.6538 271.657 44.5603C272.14 44.4667 272.585 44.2317 272.935 43.8852Z" fill="#F7941D"/>
<path d="M282.225 45.3639H281.207V44.2949C280.938 44.6954 280.569 45.0193 280.137 45.2349C279.705 45.4504 279.224 45.5501 278.741 45.5243C278.389 45.5402 278.037 45.48 277.71 45.3478C277.383 45.2155 277.089 45.0144 276.847 44.7582C276.348 44.216 276.084 43.4983 276.115 42.7626V38.8784H277.205V42.5666C277.182 43.1043 277.36 43.6313 277.705 44.0454C277.873 44.2213 278.075 44.3611 278.3 44.4561C278.524 44.5511 278.765 44.5993 279.009 44.5978C279.319 44.6102 279.627 44.5562 279.914 44.4394C280.2 44.3225 280.459 44.1457 280.671 43.9207C281.099 43.3731 281.314 42.6899 281.278 41.9965V38.8784H282.297L282.225 45.3639Z" fill="#F7941D"/>
<path d="M290.426 39.609C290.741 39.935 290.987 40.3205 291.149 40.7428C291.312 41.1651 291.388 41.6156 291.373 42.0678C291.391 42.5203 291.317 42.9717 291.154 43.3945C290.991 43.8172 290.743 44.2024 290.426 44.5266C290.128 44.8355 289.77 45.0803 289.374 45.2458C288.977 45.4112 288.551 45.4939 288.122 45.4888C287.625 45.5151 287.129 45.4201 286.678 45.212C286.226 45.004 285.833 44.6892 285.531 44.295V47.5555H284.53V38.825H285.531V39.8585C285.833 39.4642 286.226 39.1494 286.678 38.9414C287.129 38.7333 287.625 38.6384 288.122 38.6647C288.55 38.6603 288.974 38.7416 289.37 38.9038C289.766 39.066 290.125 39.3058 290.426 39.609ZM289.694 43.903C289.926 43.6683 290.108 43.3899 290.231 43.084C290.354 42.778 290.414 42.4507 290.408 42.1212C290.412 41.4571 290.156 40.8178 289.694 40.3395C289.238 39.8869 288.622 39.6327 287.979 39.6327C287.336 39.6327 286.719 39.8869 286.263 40.3395C285.899 40.6913 285.649 41.1439 285.545 41.6389C285.441 42.1339 285.488 42.6485 285.681 43.1165C285.873 43.5844 286.202 43.9841 286.624 44.264C287.046 44.544 287.543 44.6913 288.05 44.6869C288.366 44.6749 288.676 44.5992 288.961 44.4644C289.247 44.3297 289.502 44.1387 289.712 43.903H289.694Z" fill="#F7941D"/>
</svg>
