<svg width="20" height="16" viewBox="0 0 20 16" fill="none" xmlns="http://www.w3.org/2000/svg">
<path fill-rule="evenodd" clip-rule="evenodd" d="M7.17298 9.334L10.003 11.269L12.731 9.387L18.846 15.42C18.685 15.472 18.513 15.5 18.334 15.5H1.66798C1.44798 15.5 1.23798 15.457 1.04498 15.38L7.17298 9.334ZM20.001 4.376V13.833C20.001 14.08 19.947 14.314 19.851 14.525L13.857 8.611L20.001 4.376ZM0.000977506 4.429L6.04298 8.561L0.106978 14.419C0.0366733 14.2316 0.000764329 14.0331 0.000977506 13.833V4.429ZM18.334 0.5C19.254 0.5 20.001 1.246 20.001 2.167V2.753L9.99898 9.648L0.000977506 2.81V2.167C0.000977506 1.247 0.746978 0.5 1.66798 0.5H18.334Z" fill="#F7941D"/>
</svg>
