<svg width="17" height="18" viewBox="0 0 17 18" fill="none" xmlns="http://www.w3.org/2000/svg">
<path fill-rule="evenodd" clip-rule="evenodd" d="M7.13251 10.1441C5.96251 8.97412 5.08051 7.66412 4.49451 6.33512C4.37051 6.05412 4.44351 5.72512 4.66051 5.50812L5.47951 4.69012C6.15051 4.01912 6.15051 3.07012 5.56451 2.48412L4.39051 1.31012C3.60951 0.529115 2.34351 0.529115 1.56251 1.31012L0.910513 1.96212C0.169513 2.70312 -0.139487 3.77212 0.060513 4.83212C0.554513 7.44512 2.07251 10.3061 4.52151 12.7551C6.97051 15.2041 9.83151 16.7221 12.4445 17.2161C13.5045 17.4161 14.5735 17.1071 15.3145 16.3661L15.9655 15.7151C16.7465 14.9341 16.7465 13.6681 15.9655 12.8871L14.7925 11.7141C14.2065 11.1281 13.2565 11.1281 12.6715 11.7141L11.7685 12.6181C11.5515 12.8351 11.2225 12.9081 10.9415 12.7841C9.61251 12.1971 8.30251 11.3141 7.13251 10.1441Z" fill="#F7941D"/>
</svg>
